<svg width="281" height="444" viewBox="0 0 281 444" fill="none" xmlns="http://www.w3.org/2000/svg">
<rect width="281" height="444" rx="24" clip-path="url(#clip0_856_8627)" fill="url(#paint0_linear_856_8627)" fill-opacity="0.8"/>
<g clip-path="url(#clip0_856_8627)">
<path d="M38.9731 35.0583C41.3163 30.9998 42.2303 26.3184 41.5298 21.9626C40.8294 17.6068 38.5669 13.9023 35.2007 11.5996C31.8346 9.29699 27.6165 8.56837 23.4011 9.5614C19.1856 10.5544 15.288 13.1949 12.4979 16.9477C9.70785 20.7006 8.2339 25.2852 8.37472 29.7729C8.51553 34.2605 10.2606 38.3155 13.2563 41.1164C16.252 43.9173 20.2745 45.2545 24.5086 44.8573C28.7427 44.46 32.872 42.3579 36.0598 38.9769L25.0625 27.0271L38.9731 35.0583Z" fill="#644D42"/>
<path d="M72.0981 35.0583C74.4413 30.9998 75.3553 26.3184 74.6548 21.9626C73.9544 17.6068 71.6919 13.9023 68.3257 11.5996C64.9596 9.29699 60.7415 8.56837 56.5261 9.5614C52.3106 10.5544 48.413 13.1949 45.6229 16.9477C42.8328 20.7006 41.3589 25.2852 41.4997 29.7729C41.6405 34.2605 43.3856 38.3155 46.3813 41.1164C49.377 43.9173 53.3995 45.2545 57.6336 44.8573C61.8677 44.46 65.997 42.3579 69.1848 38.9769L58.1875 27.0271L72.0981 35.0583Z" fill="#644D42"/>
<path d="M105.223 35.0583C107.566 30.9998 108.48 26.3184 107.78 21.9626C107.079 17.6068 104.817 13.9023 101.451 11.5996C98.0846 9.29699 93.8665 8.56837 89.6511 9.5614C85.4356 10.5544 81.538 13.1949 78.7479 16.9477C75.9578 20.7006 74.4839 25.2852 74.6247 29.7729C74.7655 34.2605 76.5106 38.3155 79.5063 41.1164C82.502 43.9173 86.5245 45.2545 90.7586 44.8573C94.9927 44.46 99.122 42.3579 102.31 38.9769L91.3125 27.0271L105.223 35.0583Z" fill="#644D42"/>
<path d="M138.348 35.0583C140.691 30.9998 141.605 26.3184 140.905 21.9626C140.204 17.6068 137.942 13.9023 134.576 11.5996C131.21 9.29699 126.992 8.56837 122.776 9.5614C118.561 10.5544 114.663 13.1949 111.873 16.9477C109.083 20.7006 107.609 25.2852 107.75 29.7729C107.891 34.2605 109.636 38.3155 112.631 41.1164C115.627 43.9173 119.649 45.2545 123.884 44.8573C128.118 44.46 132.247 42.3579 135.435 38.9769L124.438 27.0271L138.348 35.0583Z" fill="#644D42"/>
<path d="M171.473 35.0583C173.816 30.9998 174.73 26.3184 174.03 21.9626C173.329 17.6068 171.067 13.9023 167.701 11.5996C164.335 9.29699 160.117 8.56837 155.901 9.5614C151.686 10.5544 147.788 13.1949 144.998 16.9477C142.208 20.7006 140.734 25.2852 140.875 29.7729C141.016 34.2605 142.761 38.3155 145.756 41.1164C148.752 43.9173 152.774 45.2545 157.009 44.8573C161.243 44.46 165.372 42.3579 168.56 38.9769L157.563 27.0271L171.473 35.0583Z" fill="#644D42"/>
<path d="M204.598 35.0583C206.941 30.9998 207.855 26.3184 207.155 21.9626C206.454 17.6068 204.192 13.9023 200.826 11.5996C197.46 9.29699 193.242 8.56837 189.026 9.5614C184.811 10.5544 180.913 13.1949 178.123 16.9477C175.333 20.7006 173.859 25.2852 174 29.7729C174.141 34.2605 175.886 38.3155 178.881 41.1164C181.877 43.9173 185.899 45.2545 190.134 44.8573C194.368 44.46 198.497 42.3579 201.685 38.9769L190.688 27.0271L204.598 35.0583Z" fill="#644D42"/>
<path d="M237.723 35.0583C240.066 30.9998 240.98 26.3184 240.28 21.9626C239.579 17.6068 237.317 13.9023 233.951 11.5996C230.585 9.29699 226.367 8.56837 222.151 9.5614C217.936 10.5544 214.038 13.1949 211.248 16.9477C208.458 20.7006 206.984 25.2852 207.125 29.7729C207.266 34.2605 209.011 38.3155 212.006 41.1164C215.002 43.9173 219.024 45.2545 223.259 44.8573C227.493 44.46 231.622 42.3579 234.81 38.9769L223.813 27.0271L237.723 35.0583Z" fill="#644D42"/>
<path d="M270.848 35.0583C273.191 30.9998 274.105 26.3184 273.405 21.9626C272.704 17.6068 270.442 13.9023 267.076 11.5996C263.71 9.29699 259.492 8.56837 255.276 9.5614C251.061 10.5544 247.163 13.1949 244.373 16.9477C241.583 20.7006 240.109 25.2852 240.25 29.7729C240.391 34.2605 242.136 38.3155 245.131 41.1164C248.127 43.9173 252.149 45.2545 256.384 44.8573C260.618 44.46 264.747 42.3579 267.935 38.9769L256.938 27.0271L270.848 35.0583Z" fill="#644D42"/>
<path d="M38.973 55.05C36.6298 50.9915 33.0326 47.8592 28.9101 46.288C24.7876 44.7167 20.4482 44.8238 16.771 46.5876C13.0938 48.3515 10.3538 51.6401 9.10602 55.7873C7.85828 59.9345 8.19616 64.6301 10.0512 68.9229C11.9062 73.2156 15.1397 76.7844 19.0965 78.9063C23.0533 81.0281 27.4376 81.5444 31.3611 80.3504C35.2846 79.1565 38.4539 76.3416 40.2269 72.4761C41.9999 68.6106 42.2441 63.9835 40.9099 59.5323L25.0625 63.0813L38.973 55.05Z" fill="#644D42"/>
<path d="M72.098 55.05C69.7548 50.9915 66.1576 47.8592 62.0351 46.288C57.9126 44.7167 53.5732 44.8238 49.896 46.5876C46.2188 48.3515 43.4788 51.6401 42.231 55.7873C40.9833 59.9345 41.3212 64.6301 43.1762 68.9229C45.0312 73.2156 48.2647 76.7844 52.2215 78.9063C56.1783 81.0281 60.5626 81.5444 64.4861 80.3504C68.4096 79.1565 71.5789 76.3416 73.3519 72.4761C75.1249 68.6106 75.3691 63.9835 74.0349 59.5323L58.1875 63.0813L72.098 55.05Z" fill="#644D42"/>
<path d="M105.223 55.05C102.88 50.9915 99.2826 47.8592 95.1601 46.288C91.0376 44.7167 86.6982 44.8238 83.021 46.5876C79.3438 48.3515 76.6038 51.6401 75.356 55.7873C74.1083 59.9345 74.4462 64.6301 76.3012 68.9229C78.1562 73.2156 81.3897 76.7844 85.3465 78.9063C89.3033 81.0281 93.6876 81.5444 97.6111 80.3504C101.535 79.1565 104.704 76.3416 106.477 72.4761C108.25 68.6106 108.494 63.9835 107.16 59.5323L91.3125 63.0813L105.223 55.05Z" fill="#644D42"/>
<path d="M138.348 55.05C136.005 50.9915 132.408 47.8592 128.285 46.288C124.163 44.7167 119.823 44.8238 116.146 46.5876C112.469 48.3515 109.729 51.6401 108.481 55.7873C107.233 59.9345 107.571 64.6301 109.426 68.9229C111.281 73.2156 114.515 76.7844 118.471 78.9063C122.428 81.0281 126.813 81.5444 130.736 80.3504C134.66 79.1565 137.829 76.3416 139.602 72.4761C141.375 68.6106 141.619 63.9835 140.285 59.5323L124.437 63.0813L138.348 55.05Z" fill="#644D42"/>
<path d="M171.473 55.05C169.13 50.9915 165.533 47.8592 161.41 46.288C157.288 44.7167 152.948 44.8238 149.271 46.5876C145.594 48.3515 142.854 51.6401 141.606 55.7873C140.358 59.9345 140.696 64.6301 142.551 68.9229C144.406 73.2156 147.64 76.7844 151.596 78.9063C155.553 81.0281 159.938 81.5444 163.861 80.3504C167.785 79.1565 170.954 76.3416 172.727 72.4761C174.5 68.6106 174.744 63.9835 173.41 59.5323L157.562 63.0813L171.473 55.05Z" fill="#644D42"/>
<path d="M204.598 55.05C202.255 50.9915 198.658 47.8592 194.535 46.288C190.413 44.7167 186.073 44.8238 182.396 46.5876C178.719 48.3515 175.979 51.6401 174.731 55.7873C173.483 59.9345 173.821 64.6301 175.676 68.9229C177.531 73.2156 180.765 76.7844 184.721 78.9063C188.678 81.0281 193.063 81.5444 196.986 80.3504C200.91 79.1565 204.079 76.3416 205.852 72.4761C207.625 68.6106 207.869 63.9835 206.535 59.5323L190.687 63.0813L204.598 55.05Z" fill="#644D42"/>
<path d="M237.723 55.05C235.38 50.9915 231.783 47.8592 227.66 46.288C223.538 44.7167 219.198 44.8238 215.521 46.5876C211.844 48.3515 209.104 51.6401 207.856 55.7873C206.608 59.9345 206.946 64.6301 208.801 68.9229C210.656 73.2156 213.89 76.7844 217.846 78.9063C221.803 81.0281 226.188 81.5444 230.111 80.3504C234.035 79.1565 237.204 76.3416 238.977 72.4761C240.75 68.6106 240.994 63.9835 239.66 59.5323L223.812 63.0813L237.723 55.05Z" fill="#644D42"/>
<path d="M270.848 55.05C268.505 50.9915 264.908 47.8592 260.785 46.288C256.663 44.7167 252.323 44.8238 248.646 46.5876C244.969 48.3515 242.229 51.6401 240.981 55.7873C239.733 59.9345 240.071 64.6301 241.926 68.9229C243.781 73.2156 247.015 76.7844 250.971 78.9063C254.928 81.0281 259.313 81.5444 263.236 80.3504C267.16 79.1565 270.329 76.3416 272.102 72.4761C273.875 68.6106 274.119 63.9835 272.785 59.5323L256.937 63.0813L270.848 55.05Z" fill="#644D42"/>
<path d="M38.9731 107.167C41.3163 103.108 42.2303 98.4268 41.5298 94.071C40.8294 89.7152 38.5669 86.0107 35.2007 83.708C31.8346 81.4054 27.6165 80.6768 23.4011 81.6698C19.1856 82.6628 15.288 85.3032 12.4979 89.0561C9.70785 92.809 8.2339 97.3936 8.37472 101.881C8.51553 106.369 10.2606 110.424 13.2563 113.225C16.252 116.026 20.2745 117.363 24.5086 116.966C28.7427 116.568 32.872 114.466 36.0598 111.085L25.0625 99.1355L38.9731 107.167Z" fill="#644D42"/>
<path d="M72.0981 107.167C74.4413 103.108 75.3553 98.4268 74.6548 94.071C73.9544 89.7152 71.6919 86.0107 68.3257 83.708C64.9596 81.4054 60.7415 80.6768 56.5261 81.6698C52.3106 82.6628 48.413 85.3032 45.6229 89.0561C42.8328 92.809 41.3589 97.3936 41.4997 101.881C41.6405 106.369 43.3856 110.424 46.3813 113.225C49.377 116.026 53.3995 117.363 57.6336 116.966C61.8677 116.568 65.997 114.466 69.1848 111.085L58.1875 99.1355L72.0981 107.167Z" fill="#644D42"/>
<path d="M105.223 107.167C107.566 103.108 108.48 98.4268 107.78 94.071C107.079 89.7152 104.817 86.0107 101.451 83.708C98.0846 81.4054 93.8665 80.6768 89.6511 81.6698C85.4356 82.6628 81.538 85.3032 78.7479 89.0561C75.9578 92.809 74.4839 97.3936 74.6247 101.881C74.7655 106.369 76.5106 110.424 79.5063 113.225C82.502 116.026 86.5245 117.363 90.7586 116.966C94.9927 116.568 99.122 114.466 102.31 111.085L91.3125 99.1355L105.223 107.167Z" fill="#644D42"/>
<path d="M138.348 107.167C140.691 103.108 141.605 98.4268 140.905 94.071C140.204 89.7152 137.942 86.0107 134.576 83.708C131.21 81.4054 126.992 80.6768 122.776 81.6698C118.561 82.6628 114.663 85.3032 111.873 89.0561C109.083 92.809 107.609 97.3936 107.75 101.881C107.891 106.369 109.636 110.424 112.631 113.225C115.627 116.026 119.649 117.363 123.884 116.966C128.118 116.568 132.247 114.466 135.435 111.085L124.438 99.1355L138.348 107.167Z" fill="#644D42"/>
<path d="M171.473 107.167C173.816 103.108 174.73 98.4268 174.03 94.071C173.329 89.7152 171.067 86.0107 167.701 83.708C164.335 81.4054 160.117 80.6768 155.901 81.6698C151.686 82.6628 147.788 85.3032 144.998 89.0561C142.208 92.809 140.734 97.3936 140.875 101.881C141.016 106.369 142.761 110.424 145.756 113.225C148.752 116.026 152.774 117.363 157.009 116.966C161.243 116.568 165.372 114.466 168.56 111.085L157.563 99.1355L171.473 107.167Z" fill="#644D42"/>
<path d="M204.598 107.167C206.941 103.108 207.855 98.4268 207.155 94.071C206.454 89.7152 204.192 86.0107 200.826 83.708C197.46 81.4054 193.242 80.6768 189.026 81.6698C184.811 82.6628 180.913 85.3032 178.123 89.0561C175.333 92.809 173.859 97.3936 174 101.881C174.141 106.369 175.886 110.424 178.881 113.225C181.877 116.026 185.899 117.363 190.134 116.966C194.368 116.568 198.497 114.466 201.685 111.085L190.688 99.1355L204.598 107.167Z" fill="#644D42"/>
<path d="M237.723 107.167C240.066 103.108 240.98 98.4268 240.28 94.071C239.579 89.7152 237.317 86.0107 233.951 83.708C230.585 81.4054 226.367 80.6768 222.151 81.6698C217.936 82.6628 214.038 85.3032 211.248 89.0561C208.458 92.809 206.984 97.3936 207.125 101.881C207.266 106.369 209.011 110.424 212.006 113.225C215.002 116.026 219.024 117.363 223.259 116.966C227.493 116.568 231.622 114.466 234.81 111.085L223.813 99.1355L237.723 107.167Z" fill="#644D42"/>
<path d="M270.848 107.167C273.191 103.108 274.105 98.4268 273.405 94.071C272.704 89.7152 270.442 86.0107 267.076 83.708C263.71 81.4054 259.492 80.6768 255.276 81.6698C251.061 82.6628 247.163 85.3032 244.373 89.0561C241.583 92.809 240.109 97.3936 240.25 101.881C240.391 106.369 242.136 110.424 245.131 113.225C248.127 116.026 252.149 117.363 256.384 116.966C260.618 116.568 264.747 114.466 267.935 111.085L256.938 99.1355L270.848 107.167Z" fill="#644D42"/>
<path d="M38.973 127.158C36.6298 123.1 33.0326 119.967 28.9101 118.396C24.7876 116.825 20.4482 116.932 16.771 118.696C13.0938 120.46 10.3538 123.748 9.10602 127.895C7.85828 132.043 8.19616 136.738 10.0512 141.031C11.9062 145.324 15.1397 148.893 19.0965 151.014C23.0533 153.136 27.4376 153.653 31.3611 152.459C35.2846 151.265 38.4539 148.45 40.2269 144.584C41.9999 140.719 42.2441 136.092 40.9099 131.64L25.0625 135.189L38.973 127.158Z" fill="#644D42"/>
<path d="M72.098 127.158C69.7548 123.1 66.1576 119.967 62.0351 118.396C57.9126 116.825 53.5732 116.932 49.896 118.696C46.2188 120.46 43.4788 123.748 42.231 127.895C40.9833 132.043 41.3212 136.738 43.1762 141.031C45.0312 145.324 48.2647 148.893 52.2215 151.014C56.1783 153.136 60.5626 153.653 64.4861 152.459C68.4096 151.265 71.5789 148.45 73.3519 144.584C75.1249 140.719 75.3691 136.092 74.0349 131.64L58.1875 135.189L72.098 127.158Z" fill="#644D42"/>
<path d="M105.223 127.158C102.88 123.1 99.2826 119.967 95.1601 118.396C91.0376 116.825 86.6982 116.932 83.021 118.696C79.3438 120.46 76.6038 123.748 75.356 127.895C74.1083 132.043 74.4462 136.738 76.3012 141.031C78.1562 145.324 81.3897 148.893 85.3465 151.014C89.3033 153.136 93.6876 153.653 97.6111 152.459C101.535 151.265 104.704 148.45 106.477 144.584C108.25 140.719 108.494 136.092 107.16 131.64L91.3125 135.189L105.223 127.158Z" fill="#644D42"/>
<path d="M138.348 127.158C136.005 123.1 132.408 119.967 128.285 118.396C124.163 116.825 119.823 116.932 116.146 118.696C112.469 120.46 109.729 123.748 108.481 127.895C107.233 132.043 107.571 136.738 109.426 141.031C111.281 145.324 114.515 148.893 118.471 151.014C122.428 153.136 126.813 153.653 130.736 152.459C134.66 151.265 137.829 148.45 139.602 144.584C141.375 140.719 141.619 136.092 140.285 131.64L124.437 135.189L138.348 127.158Z" fill="#644D42"/>
<path d="M171.473 127.158C169.13 123.1 165.533 119.967 161.41 118.396C157.288 116.825 152.948 116.932 149.271 118.696C145.594 120.46 142.854 123.748 141.606 127.895C140.358 132.043 140.696 136.738 142.551 141.031C144.406 145.324 147.64 148.893 151.596 151.014C155.553 153.136 159.938 153.653 163.861 152.459C167.785 151.265 170.954 148.45 172.727 144.584C174.5 140.719 174.744 136.092 173.41 131.64L157.562 135.189L171.473 127.158Z" fill="#644D42"/>
<path d="M204.598 127.158C202.255 123.1 198.658 119.967 194.535 118.396C190.413 116.825 186.073 116.932 182.396 118.696C178.719 120.46 175.979 123.748 174.731 127.895C173.483 132.043 173.821 136.738 175.676 141.031C177.531 145.324 180.765 148.893 184.721 151.014C188.678 153.136 193.063 153.653 196.986 152.459C200.91 151.265 204.079 148.45 205.852 144.584C207.625 140.719 207.869 136.092 206.535 131.64L190.687 135.189L204.598 127.158Z" fill="#644D42"/>
<path d="M237.723 127.158C235.38 123.1 231.783 119.967 227.66 118.396C223.538 116.825 219.198 116.932 215.521 118.696C211.844 120.46 209.104 123.748 207.856 127.895C206.608 132.043 206.946 136.738 208.801 141.031C210.656 145.324 213.89 148.893 217.846 151.014C221.803 153.136 226.188 153.653 230.111 152.459C234.035 151.265 237.204 148.45 238.977 144.584C240.75 140.719 240.994 136.092 239.66 131.64L223.812 135.189L237.723 127.158Z" fill="#644D42"/>
<path d="M270.848 127.158C268.505 123.1 264.908 119.967 260.785 118.396C256.663 116.825 252.323 116.932 248.646 118.696C244.969 120.46 242.229 123.748 240.981 127.895C239.733 132.043 240.071 136.738 241.926 141.031C243.781 145.324 247.015 148.893 250.971 151.014C254.928 153.136 259.313 153.653 263.236 152.459C267.16 151.265 270.329 148.45 272.102 144.584C273.875 140.719 274.119 136.092 272.785 131.64L256.937 135.189L270.848 127.158Z" fill="#644D42"/>
<path d="M38.9731 179.275C41.3163 175.216 42.2303 170.535 41.5298 166.179C40.8294 161.823 38.5669 158.119 35.2007 155.816C31.8346 153.514 27.6165 152.785 23.4011 153.778C19.1856 154.771 15.288 157.411 12.4979 161.164C9.70785 164.917 8.2339 169.502 8.37472 173.989C8.51553 178.477 10.2606 182.532 13.2563 185.333C16.252 188.134 20.2745 189.471 24.5086 189.074C28.7427 188.677 32.872 186.574 36.0598 183.193L25.0625 171.244L38.9731 179.275Z" fill="#644D42"/>
<path d="M72.0981 179.275C74.4413 175.216 75.3553 170.535 74.6548 166.179C73.9544 161.823 71.6919 158.119 68.3257 155.816C64.9596 153.514 60.7415 152.785 56.5261 153.778C52.3106 154.771 48.413 157.411 45.6229 161.164C42.8328 164.917 41.3589 169.502 41.4997 173.989C41.6405 178.477 43.3856 182.532 46.3813 185.333C49.377 188.134 53.3995 189.471 57.6336 189.074C61.8677 188.677 65.997 186.574 69.1848 183.193L58.1875 171.244L72.0981 179.275Z" fill="#644D42"/>
<path d="M105.223 179.275C107.566 175.216 108.48 170.535 107.78 166.179C107.079 161.823 104.817 158.119 101.451 155.816C98.0846 153.514 93.8665 152.785 89.6511 153.778C85.4356 154.771 81.538 157.411 78.7479 161.164C75.9578 164.917 74.4839 169.502 74.6247 173.989C74.7655 178.477 76.5106 182.532 79.5063 185.333C82.502 188.134 86.5245 189.471 90.7586 189.074C94.9927 188.677 99.122 186.574 102.31 183.193L91.3125 171.244L105.223 179.275Z" fill="#644D42"/>
<path d="M138.348 179.275C140.691 175.216 141.605 170.535 140.905 166.179C140.204 161.823 137.942 158.119 134.576 155.816C131.21 153.514 126.992 152.785 122.776 153.778C118.561 154.771 114.663 157.411 111.873 161.164C109.083 164.917 107.609 169.502 107.75 173.989C107.891 178.477 109.636 182.532 112.631 185.333C115.627 188.134 119.649 189.471 123.884 189.074C128.118 188.677 132.247 186.574 135.435 183.193L124.438 171.244L138.348 179.275Z" fill="#644D42"/>
<path d="M171.473 179.275C173.816 175.216 174.73 170.535 174.03 166.179C173.329 161.823 171.067 158.119 167.701 155.816C164.335 153.514 160.117 152.785 155.901 153.778C151.686 154.771 147.788 157.411 144.998 161.164C142.208 164.917 140.734 169.502 140.875 173.989C141.016 178.477 142.761 182.532 145.756 185.333C148.752 188.134 152.774 189.471 157.009 189.074C161.243 188.677 165.372 186.574 168.56 183.193L157.563 171.244L171.473 179.275Z" fill="#644D42"/>
<path d="M204.598 179.275C206.941 175.216 207.855 170.535 207.155 166.179C206.454 161.823 204.192 158.119 200.826 155.816C197.46 153.514 193.242 152.785 189.026 153.778C184.811 154.771 180.913 157.411 178.123 161.164C175.333 164.917 173.859 169.502 174 173.989C174.141 178.477 175.886 182.532 178.881 185.333C181.877 188.134 185.899 189.471 190.134 189.074C194.368 188.677 198.497 186.574 201.685 183.193L190.688 171.244L204.598 179.275Z" fill="#644D42"/>
<path d="M237.723 179.275C240.066 175.216 240.98 170.535 240.28 166.179C239.579 161.823 237.317 158.119 233.951 155.816C230.585 153.514 226.367 152.785 222.151 153.778C217.936 154.771 214.038 157.411 211.248 161.164C208.458 164.917 206.984 169.502 207.125 173.989C207.266 178.477 209.011 182.532 212.006 185.333C215.002 188.134 219.024 189.471 223.259 189.074C227.493 188.677 231.622 186.574 234.81 183.193L223.813 171.244L237.723 179.275Z" fill="#644D42"/>
<path d="M270.848 179.275C273.191 175.216 274.105 170.535 273.405 166.179C272.704 161.823 270.442 158.119 267.076 155.816C263.71 153.514 259.492 152.785 255.276 153.778C251.061 154.771 247.163 157.411 244.373 161.164C241.583 164.917 240.109 169.502 240.25 173.989C240.391 178.477 242.136 182.532 245.131 185.333C248.127 188.134 252.149 189.471 256.384 189.074C260.618 188.677 264.747 186.574 267.935 183.193L256.938 171.244L270.848 179.275Z" fill="#644D42"/>
<path d="M38.973 199.267C36.6298 195.208 33.0326 192.076 28.9101 190.505C24.7876 188.933 20.4482 189.04 16.771 190.804C13.0938 192.568 10.3538 195.857 9.10602 200.004C7.85828 204.151 8.19616 208.847 10.0512 213.139C11.9062 217.432 15.1397 221.001 19.0965 223.123C23.0533 225.245 27.4376 225.761 31.3611 224.567C35.2846 223.373 38.4539 220.558 40.2269 216.693C41.9999 212.827 42.2441 208.2 40.9099 203.749L25.0625 207.298L38.973 199.267Z" fill="#644D42"/>
<path d="M72.098 199.267C69.7548 195.208 66.1576 192.076 62.0351 190.505C57.9126 188.933 53.5732 189.04 49.896 190.804C46.2188 192.568 43.4788 195.857 42.231 200.004C40.9833 204.151 41.3212 208.847 43.1762 213.139C45.0312 217.432 48.2647 221.001 52.2215 223.123C56.1783 225.245 60.5626 225.761 64.4861 224.567C68.4096 223.373 71.5789 220.558 73.3519 216.693C75.1249 212.827 75.3691 208.2 74.0349 203.749L58.1875 207.298L72.098 199.267Z" fill="#644D42"/>
<path d="M105.223 199.267C102.88 195.208 99.2826 192.076 95.1601 190.505C91.0376 188.933 86.6982 189.04 83.021 190.804C79.3438 192.568 76.6038 195.857 75.356 200.004C74.1083 204.151 74.4462 208.847 76.3012 213.139C78.1562 217.432 81.3897 221.001 85.3465 223.123C89.3033 225.245 93.6876 225.761 97.6111 224.567C101.535 223.373 104.704 220.558 106.477 216.693C108.25 212.827 108.494 208.2 107.16 203.749L91.3125 207.298L105.223 199.267Z" fill="#644D42"/>
<path d="M138.348 199.267C136.005 195.208 132.408 192.076 128.285 190.505C124.163 188.933 119.823 189.04 116.146 190.804C112.469 192.568 109.729 195.857 108.481 200.004C107.233 204.151 107.571 208.847 109.426 213.139C111.281 217.432 114.515 221.001 118.471 223.123C122.428 225.245 126.813 225.761 130.736 224.567C134.66 223.373 137.829 220.558 139.602 216.693C141.375 212.827 141.619 208.2 140.285 203.749L124.437 207.298L138.348 199.267Z" fill="#644D42"/>
<path d="M171.473 199.267C169.13 195.208 165.533 192.076 161.41 190.505C157.288 188.933 152.948 189.04 149.271 190.804C145.594 192.568 142.854 195.857 141.606 200.004C140.358 204.151 140.696 208.847 142.551 213.139C144.406 217.432 147.64 221.001 151.596 223.123C155.553 225.245 159.938 225.761 163.861 224.567C167.785 223.373 170.954 220.558 172.727 216.693C174.5 212.827 174.744 208.2 173.41 203.749L157.562 207.298L171.473 199.267Z" fill="#644D42"/>
<path d="M204.598 199.267C202.255 195.208 198.658 192.076 194.535 190.505C190.413 188.933 186.073 189.04 182.396 190.804C178.719 192.568 175.979 195.857 174.731 200.004C173.483 204.151 173.821 208.847 175.676 213.139C177.531 217.432 180.765 221.001 184.721 223.123C188.678 225.245 193.063 225.761 196.986 224.567C200.91 223.373 204.079 220.558 205.852 216.693C207.625 212.827 207.869 208.2 206.535 203.749L190.687 207.298L204.598 199.267Z" fill="#644D42"/>
<path d="M237.723 199.267C235.38 195.208 231.783 192.076 227.66 190.505C223.538 188.933 219.198 189.04 215.521 190.804C211.844 192.568 209.104 195.857 207.856 200.004C206.608 204.151 206.946 208.847 208.801 213.139C210.656 217.432 213.89 221.001 217.846 223.123C221.803 225.245 226.188 225.761 230.111 224.567C234.035 223.373 237.204 220.558 238.977 216.693C240.75 212.827 240.994 208.2 239.66 203.749L223.812 207.298L237.723 199.267Z" fill="#644D42"/>
<path d="M270.848 199.267C268.505 195.208 264.908 192.076 260.785 190.505C256.663 188.933 252.323 189.04 248.646 190.804C244.969 192.568 242.229 195.857 240.981 200.004C239.733 204.151 240.071 208.847 241.926 213.139C243.781 217.432 247.015 221.001 250.971 223.123C254.928 225.245 259.313 225.761 263.236 224.567C267.16 223.373 270.329 220.558 272.102 216.693C273.875 212.827 274.119 208.2 272.785 203.749L256.937 207.298L270.848 199.267Z" fill="#644D42"/>
<path d="M38.9731 251.383C41.3163 247.325 42.2303 242.643 41.5298 238.288C40.8294 233.932 38.5669 230.227 35.2007 227.925C31.8346 225.622 27.6165 224.893 23.4011 225.886C19.1856 226.879 15.288 229.52 12.4979 233.273C9.70785 237.026 8.2339 241.61 8.37472 246.098C8.51553 250.585 10.2606 254.64 13.2563 257.441C16.252 260.242 20.2745 261.579 24.5086 261.182C28.7427 260.785 32.872 258.683 36.0598 255.302L25.0625 243.352L38.9731 251.383Z" fill="#644D42"/>
<path d="M72.0981 251.383C74.4413 247.325 75.3553 242.643 74.6548 238.288C73.9544 233.932 71.6919 230.227 68.3257 227.925C64.9596 225.622 60.7415 224.893 56.5261 225.886C52.3106 226.879 48.413 229.52 45.6229 233.273C42.8328 237.026 41.3589 241.61 41.4997 246.098C41.6405 250.585 43.3856 254.64 46.3813 257.441C49.377 260.242 53.3995 261.579 57.6336 261.182C61.8677 260.785 65.997 258.683 69.1848 255.302L58.1875 243.352L72.0981 251.383Z" fill="#644D42"/>
<path d="M105.223 251.383C107.566 247.325 108.48 242.643 107.78 238.288C107.079 233.932 104.817 230.227 101.451 227.925C98.0846 225.622 93.8665 224.893 89.6511 225.886C85.4356 226.879 81.538 229.52 78.7479 233.273C75.9578 237.026 74.4839 241.61 74.6247 246.098C74.7655 250.585 76.5106 254.64 79.5063 257.441C82.502 260.242 86.5245 261.579 90.7586 261.182C94.9927 260.785 99.122 258.683 102.31 255.302L91.3125 243.352L105.223 251.383Z" fill="#644D42"/>
<path d="M138.348 251.383C140.691 247.325 141.605 242.643 140.905 238.288C140.204 233.932 137.942 230.227 134.576 227.925C131.21 225.622 126.992 224.893 122.776 225.886C118.561 226.879 114.663 229.52 111.873 233.273C109.083 237.026 107.609 241.61 107.75 246.098C107.891 250.585 109.636 254.64 112.631 257.441C115.627 260.242 119.649 261.579 123.884 261.182C128.118 260.785 132.247 258.683 135.435 255.302L124.438 243.352L138.348 251.383Z" fill="#644D42"/>
<path d="M171.473 251.383C173.816 247.325 174.73 242.643 174.03 238.288C173.329 233.932 171.067 230.227 167.701 227.925C164.335 225.622 160.117 224.893 155.901 225.886C151.686 226.879 147.788 229.52 144.998 233.273C142.208 237.026 140.734 241.61 140.875 246.098C141.016 250.585 142.761 254.64 145.756 257.441C148.752 260.242 152.774 261.579 157.009 261.182C161.243 260.785 165.372 258.683 168.56 255.302L157.563 243.352L171.473 251.383Z" fill="#644D42"/>
<path d="M204.598 251.383C206.941 247.325 207.855 242.643 207.155 238.288C206.454 233.932 204.192 230.227 200.826 227.925C197.46 225.622 193.242 224.893 189.026 225.886C184.811 226.879 180.913 229.52 178.123 233.273C175.333 237.026 173.859 241.61 174 246.098C174.141 250.585 175.886 254.64 178.881 257.441C181.877 260.242 185.899 261.579 190.134 261.182C194.368 260.785 198.497 258.683 201.685 255.302L190.688 243.352L204.598 251.383Z" fill="#644D42"/>
<path d="M237.723 251.383C240.066 247.325 240.98 242.643 240.28 238.288C239.579 233.932 237.317 230.227 233.951 227.925C230.585 225.622 226.367 224.893 222.151 225.886C217.936 226.879 214.038 229.52 211.248 233.273C208.458 237.026 206.984 241.61 207.125 246.098C207.266 250.585 209.011 254.64 212.006 257.441C215.002 260.242 219.024 261.579 223.259 261.182C227.493 260.785 231.622 258.683 234.81 255.302L223.813 243.352L237.723 251.383Z" fill="#644D42"/>
<path d="M270.848 251.383C273.191 247.325 274.105 242.643 273.405 238.288C272.704 233.932 270.442 230.227 267.076 227.925C263.71 225.622 259.492 224.893 255.276 225.886C251.061 226.879 247.163 229.52 244.373 233.273C241.583 237.026 240.109 241.61 240.25 246.098C240.391 250.585 242.136 254.64 245.131 257.441C248.127 260.242 252.149 261.579 256.384 261.182C260.618 260.785 264.747 258.683 267.935 255.302L256.938 243.352L270.848 251.383Z" fill="#644D42"/>
<path d="M38.973 271.375C36.6298 267.316 33.0326 264.184 28.9101 262.613C24.7876 261.041 20.4482 261.148 16.771 262.912C13.0938 264.676 10.3538 267.965 9.10602 272.112C7.85828 276.259 8.19616 280.955 10.0512 285.248C11.9062 289.54 15.1397 293.109 19.0965 295.231C23.0533 297.353 27.4376 297.869 31.3611 296.675C35.2846 295.481 38.4539 292.666 40.2269 288.801C41.9999 284.935 42.2441 280.308 40.9099 275.857L25.0625 279.406L38.973 271.375Z" fill="#644D42"/>
<path d="M72.098 271.375C69.7548 267.316 66.1576 264.184 62.0351 262.613C57.9126 261.041 53.5732 261.148 49.896 262.912C46.2188 264.676 43.4788 267.965 42.231 272.112C40.9833 276.259 41.3212 280.955 43.1762 285.248C45.0312 289.54 48.2647 293.109 52.2215 295.231C56.1783 297.353 60.5626 297.869 64.4861 296.675C68.4096 295.481 71.5789 292.666 73.3519 288.801C75.1249 284.935 75.3691 280.308 74.0349 275.857L58.1875 279.406L72.098 271.375Z" fill="#644D42"/>
<path d="M105.223 271.375C102.88 267.316 99.2826 264.184 95.1601 262.613C91.0376 261.041 86.6982 261.148 83.021 262.912C79.3438 264.676 76.6038 267.965 75.356 272.112C74.1083 276.259 74.4462 280.955 76.3012 285.248C78.1562 289.54 81.3897 293.109 85.3465 295.231C89.3033 297.353 93.6876 297.869 97.6111 296.675C101.535 295.481 104.704 292.666 106.477 288.801C108.25 284.935 108.494 280.308 107.16 275.857L91.3125 279.406L105.223 271.375Z" fill="#644D42"/>
<path d="M138.348 271.375C136.005 267.316 132.408 264.184 128.285 262.613C124.163 261.041 119.823 261.148 116.146 262.912C112.469 264.676 109.729 267.965 108.481 272.112C107.233 276.259 107.571 280.955 109.426 285.248C111.281 289.54 114.515 293.109 118.471 295.231C122.428 297.353 126.813 297.869 130.736 296.675C134.66 295.481 137.829 292.666 139.602 288.801C141.375 284.935 141.619 280.308 140.285 275.857L124.437 279.406L138.348 271.375Z" fill="#644D42"/>
<path d="M171.473 271.375C169.13 267.316 165.533 264.184 161.41 262.613C157.288 261.041 152.948 261.148 149.271 262.912C145.594 264.676 142.854 267.965 141.606 272.112C140.358 276.259 140.696 280.955 142.551 285.248C144.406 289.54 147.64 293.109 151.596 295.231C155.553 297.353 159.938 297.869 163.861 296.675C167.785 295.481 170.954 292.666 172.727 288.801C174.5 284.935 174.744 280.308 173.41 275.857L157.562 279.406L171.473 271.375Z" fill="#644D42"/>
<path d="M204.598 271.375C202.255 267.316 198.658 264.184 194.535 262.613C190.413 261.041 186.073 261.148 182.396 262.912C178.719 264.676 175.979 267.965 174.731 272.112C173.483 276.259 173.821 280.955 175.676 285.248C177.531 289.54 180.765 293.109 184.721 295.231C188.678 297.353 193.063 297.869 196.986 296.675C200.91 295.481 204.079 292.666 205.852 288.801C207.625 284.935 207.869 280.308 206.535 275.857L190.687 279.406L204.598 271.375Z" fill="#644D42"/>
<path d="M237.723 271.375C235.38 267.316 231.783 264.184 227.66 262.613C223.538 261.041 219.198 261.148 215.521 262.912C211.844 264.676 209.104 267.965 207.856 272.112C206.608 276.259 206.946 280.955 208.801 285.248C210.656 289.54 213.89 293.109 217.846 295.231C221.803 297.353 226.188 297.869 230.111 296.675C234.035 295.481 237.204 292.666 238.977 288.801C240.75 284.935 240.994 280.308 239.66 275.857L223.812 279.406L237.723 271.375Z" fill="#644D42"/>
<path d="M270.848 271.375C268.505 267.316 264.908 264.184 260.785 262.613C256.663 261.041 252.323 261.148 248.646 262.912C244.969 264.676 242.229 267.965 240.981 272.112C239.733 276.259 240.071 280.955 241.926 285.248C243.781 289.54 247.015 293.109 250.971 295.231C254.928 297.353 259.313 297.869 263.236 296.675C267.16 295.481 270.329 292.666 272.102 288.801C273.875 284.935 274.119 280.308 272.785 275.857L256.937 279.406L270.848 271.375Z" fill="#644D42"/>
<path d="M38.9731 323.491C41.3163 319.433 42.2303 314.751 41.5298 310.396C40.8294 306.04 38.5669 302.335 35.2007 300.033C31.8346 297.73 27.6165 297.001 23.4011 297.995C19.1856 298.988 15.288 301.628 12.4979 305.381C9.70785 309.134 8.2339 313.718 8.37472 318.206C8.51553 322.694 10.2606 326.749 13.2563 329.55C16.252 332.35 20.2745 333.688 24.5086 333.29C28.7427 332.893 32.872 330.791 36.0598 327.41L25.0625 315.46L38.9731 323.491Z" fill="#644D42"/>
<path d="M72.0981 323.491C74.4413 319.433 75.3553 314.751 74.6548 310.396C73.9544 306.04 71.6919 302.335 68.3257 300.033C64.9596 297.73 60.7415 297.001 56.5261 297.995C52.3106 298.988 48.413 301.628 45.6229 305.381C42.8328 309.134 41.3589 313.718 41.4997 318.206C41.6405 322.694 43.3856 326.749 46.3813 329.55C49.377 332.35 53.3995 333.688 57.6336 333.29C61.8677 332.893 65.997 330.791 69.1848 327.41L58.1875 315.46L72.0981 323.491Z" fill="#644D42"/>
<path d="M105.223 323.491C107.566 319.433 108.48 314.751 107.78 310.396C107.079 306.04 104.817 302.335 101.451 300.033C98.0846 297.73 93.8665 297.001 89.6511 297.995C85.4356 298.988 81.538 301.628 78.7479 305.381C75.9578 309.134 74.4839 313.718 74.6247 318.206C74.7655 322.694 76.5106 326.749 79.5063 329.55C82.502 332.35 86.5245 333.688 90.7586 333.29C94.9927 332.893 99.122 330.791 102.31 327.41L91.3125 315.46L105.223 323.491Z" fill="#644D42"/>
<path d="M138.348 323.491C140.691 319.433 141.605 314.751 140.905 310.396C140.204 306.04 137.942 302.335 134.576 300.033C131.21 297.73 126.992 297.001 122.776 297.995C118.561 298.988 114.663 301.628 111.873 305.381C109.083 309.134 107.609 313.718 107.75 318.206C107.891 322.694 109.636 326.749 112.631 329.55C115.627 332.35 119.649 333.688 123.884 333.29C128.118 332.893 132.247 330.791 135.435 327.41L124.438 315.46L138.348 323.491Z" fill="#644D42"/>
<path d="M171.473 323.491C173.816 319.433 174.73 314.751 174.03 310.396C173.329 306.04 171.067 302.335 167.701 300.033C164.335 297.73 160.117 297.001 155.901 297.995C151.686 298.988 147.788 301.628 144.998 305.381C142.208 309.134 140.734 313.718 140.875 318.206C141.016 322.694 142.761 326.749 145.756 329.55C148.752 332.35 152.774 333.688 157.009 333.29C161.243 332.893 165.372 330.791 168.56 327.41L157.563 315.46L171.473 323.491Z" fill="#644D42"/>
<path d="M204.598 323.491C206.941 319.433 207.855 314.751 207.155 310.396C206.454 306.04 204.192 302.335 200.826 300.033C197.46 297.73 193.242 297.001 189.026 297.995C184.811 298.988 180.913 301.628 178.123 305.381C175.333 309.134 173.859 313.718 174 318.206C174.141 322.694 175.886 326.749 178.881 329.55C181.877 332.35 185.899 333.688 190.134 333.29C194.368 332.893 198.497 330.791 201.685 327.41L190.688 315.46L204.598 323.491Z" fill="#644D42"/>
<path d="M237.723 323.491C240.066 319.433 240.98 314.751 240.28 310.396C239.579 306.04 237.317 302.335 233.951 300.033C230.585 297.73 226.367 297.001 222.151 297.995C217.936 298.988 214.038 301.628 211.248 305.381C208.458 309.134 206.984 313.718 207.125 318.206C207.266 322.694 209.011 326.749 212.006 329.55C215.002 332.35 219.024 333.688 223.259 333.29C227.493 332.893 231.622 330.791 234.81 327.41L223.813 315.46L237.723 323.491Z" fill="#644D42"/>
<path d="M270.848 323.491C273.191 319.433 274.105 314.751 273.405 310.396C272.704 306.04 270.442 302.335 267.076 300.033C263.71 297.73 259.492 297.001 255.276 297.995C251.061 298.988 247.163 301.628 244.373 305.381C241.583 309.134 240.109 313.718 240.25 318.206C240.391 322.694 242.136 326.749 245.131 329.55C248.127 332.35 252.149 333.688 256.384 333.29C260.618 332.893 264.747 330.791 267.935 327.41L256.938 315.46L270.848 323.491Z" fill="#644D42"/>
<path d="M38.973 343.483C36.6298 339.425 33.0326 336.292 28.9101 334.721C24.7876 333.15 20.4482 333.257 16.771 335.021C13.0938 336.785 10.3538 340.073 9.10602 344.22C7.85828 348.368 8.19616 353.063 10.0512 357.356C11.9062 361.649 15.1397 365.217 19.0965 367.339C23.0533 369.461 27.4376 369.977 31.3611 368.784C35.2846 367.59 38.4539 364.775 40.2269 360.909C41.9999 357.044 42.2441 352.417 40.9099 347.965L25.0625 351.514L38.973 343.483Z" fill="#644D42"/>
<path d="M72.098 343.483C69.7548 339.425 66.1576 336.292 62.0351 334.721C57.9126 333.15 53.5732 333.257 49.896 335.021C46.2188 336.785 43.4788 340.073 42.231 344.22C40.9833 348.368 41.3212 353.063 43.1762 357.356C45.0312 361.649 48.2647 365.217 52.2215 367.339C56.1783 369.461 60.5626 369.977 64.4861 368.784C68.4096 367.59 71.5789 364.775 73.3519 360.909C75.1249 357.044 75.3691 352.417 74.0349 347.965L58.1875 351.514L72.098 343.483Z" fill="#644D42"/>
<path d="M105.223 343.483C102.88 339.425 99.2826 336.292 95.1601 334.721C91.0376 333.15 86.6982 333.257 83.021 335.021C79.3438 336.785 76.6038 340.073 75.356 344.22C74.1083 348.368 74.4462 353.063 76.3012 357.356C78.1562 361.649 81.3897 365.217 85.3465 367.339C89.3033 369.461 93.6876 369.977 97.6111 368.784C101.535 367.59 104.704 364.775 106.477 360.909C108.25 357.044 108.494 352.417 107.16 347.965L91.3125 351.514L105.223 343.483Z" fill="#644D42"/>
<path d="M138.348 343.483C136.005 339.425 132.408 336.292 128.285 334.721C124.163 333.15 119.823 333.257 116.146 335.021C112.469 336.785 109.729 340.073 108.481 344.22C107.233 348.368 107.571 353.063 109.426 357.356C111.281 361.649 114.515 365.217 118.471 367.339C122.428 369.461 126.813 369.977 130.736 368.784C134.66 367.59 137.829 364.775 139.602 360.909C141.375 357.044 141.619 352.417 140.285 347.965L124.437 351.514L138.348 343.483Z" fill="#644D42"/>
<path d="M171.473 343.483C169.13 339.425 165.533 336.292 161.41 334.721C157.288 333.15 152.948 333.257 149.271 335.021C145.594 336.785 142.854 340.073 141.606 344.22C140.358 348.368 140.696 353.063 142.551 357.356C144.406 361.649 147.64 365.217 151.596 367.339C155.553 369.461 159.938 369.977 163.861 368.784C167.785 367.59 170.954 364.775 172.727 360.909C174.5 357.044 174.744 352.417 173.41 347.965L157.562 351.514L171.473 343.483Z" fill="#644D42"/>
<path d="M204.598 343.483C202.255 339.425 198.658 336.292 194.535 334.721C190.413 333.15 186.073 333.257 182.396 335.021C178.719 336.785 175.979 340.073 174.731 344.22C173.483 348.368 173.821 353.063 175.676 357.356C177.531 361.649 180.765 365.217 184.721 367.339C188.678 369.461 193.063 369.977 196.986 368.784C200.91 367.59 204.079 364.775 205.852 360.909C207.625 357.044 207.869 352.417 206.535 347.965L190.687 351.514L204.598 343.483Z" fill="#644D42"/>
<path d="M237.723 343.483C235.38 339.425 231.783 336.292 227.66 334.721C223.538 333.15 219.198 333.257 215.521 335.021C211.844 336.785 209.104 340.073 207.856 344.22C206.608 348.368 206.946 353.063 208.801 357.356C210.656 361.649 213.89 365.217 217.846 367.339C221.803 369.461 226.188 369.977 230.111 368.784C234.035 367.59 237.204 364.775 238.977 360.909C240.75 357.044 240.994 352.417 239.66 347.965L223.812 351.514L237.723 343.483Z" fill="#644D42"/>
<path d="M270.848 343.483C268.505 339.425 264.908 336.292 260.785 334.721C256.663 333.15 252.323 333.257 248.646 335.021C244.969 336.785 242.229 340.073 240.981 344.22C239.733 348.368 240.071 353.063 241.926 357.356C243.781 361.649 247.015 365.217 250.971 367.339C254.928 369.461 259.313 369.977 263.236 368.784C267.16 367.59 270.329 364.775 272.102 360.909C273.875 357.044 274.119 352.417 272.785 347.965L256.937 351.514L270.848 343.483Z" fill="#644D42"/>
<path d="M38.9731 395.6C41.3163 391.541 42.2303 386.86 41.5298 382.504C40.8294 378.148 38.5669 374.444 35.2007 372.141C31.8346 369.838 27.6165 369.11 23.4011 370.103C19.1856 371.096 15.288 373.736 12.4979 377.489C9.70785 381.242 8.2339 385.827 8.37472 390.314C8.51553 394.802 10.2606 398.857 13.2563 401.658C16.252 404.459 20.2745 405.796 24.5086 405.399C28.7427 405.002 32.872 402.899 36.0598 399.518L25.0625 387.569L38.9731 395.6Z" fill="#644D42"/>
<path d="M72.0981 395.6C74.4413 391.541 75.3553 386.86 74.6548 382.504C73.9544 378.148 71.6919 374.444 68.3257 372.141C64.9596 369.838 60.7415 369.11 56.5261 370.103C52.3106 371.096 48.413 373.736 45.6229 377.489C42.8328 381.242 41.3589 385.827 41.4997 390.314C41.6405 394.802 43.3856 398.857 46.3813 401.658C49.377 404.459 53.3995 405.796 57.6336 405.399C61.8677 405.002 65.997 402.899 69.1848 399.518L58.1875 387.569L72.0981 395.6Z" fill="#644D42"/>
<path d="M105.223 395.6C107.566 391.541 108.48 386.86 107.78 382.504C107.079 378.148 104.817 374.444 101.451 372.141C98.0846 369.838 93.8665 369.11 89.6511 370.103C85.4356 371.096 81.538 373.736 78.7479 377.489C75.9578 381.242 74.4839 385.827 74.6247 390.314C74.7655 394.802 76.5106 398.857 79.5063 401.658C82.502 404.459 86.5245 405.796 90.7586 405.399C94.9927 405.002 99.122 402.899 102.31 399.518L91.3125 387.569L105.223 395.6Z" fill="#644D42"/>
<path d="M138.348 395.6C140.691 391.541 141.605 386.86 140.905 382.504C140.204 378.148 137.942 374.444 134.576 372.141C131.21 369.838 126.992 369.11 122.776 370.103C118.561 371.096 114.663 373.736 111.873 377.489C109.083 381.242 107.609 385.827 107.75 390.314C107.891 394.802 109.636 398.857 112.631 401.658C115.627 404.459 119.649 405.796 123.884 405.399C128.118 405.002 132.247 402.899 135.435 399.518L124.438 387.569L138.348 395.6Z" fill="#644D42"/>
<path d="M171.473 395.6C173.816 391.541 174.73 386.86 174.03 382.504C173.329 378.148 171.067 374.444 167.701 372.141C164.335 369.838 160.117 369.11 155.901 370.103C151.686 371.096 147.788 373.736 144.998 377.489C142.208 381.242 140.734 385.827 140.875 390.314C141.016 394.802 142.761 398.857 145.756 401.658C148.752 404.459 152.774 405.796 157.009 405.399C161.243 405.002 165.372 402.899 168.56 399.518L157.563 387.569L171.473 395.6Z" fill="#644D42"/>
<path d="M204.598 395.6C206.941 391.541 207.855 386.86 207.155 382.504C206.454 378.148 204.192 374.444 200.826 372.141C197.46 369.838 193.242 369.11 189.026 370.103C184.811 371.096 180.913 373.736 178.123 377.489C175.333 381.242 173.859 385.827 174 390.314C174.141 394.802 175.886 398.857 178.881 401.658C181.877 404.459 185.899 405.796 190.134 405.399C194.368 405.002 198.497 402.899 201.685 399.518L190.688 387.569L204.598 395.6Z" fill="#644D42"/>
<path d="M237.723 395.6C240.066 391.541 240.98 386.86 240.28 382.504C239.579 378.148 237.317 374.444 233.951 372.141C230.585 369.838 226.367 369.11 222.151 370.103C217.936 371.096 214.038 373.736 211.248 377.489C208.458 381.242 206.984 385.827 207.125 390.314C207.266 394.802 209.011 398.857 212.006 401.658C215.002 404.459 219.024 405.796 223.259 405.399C227.493 405.002 231.622 402.899 234.81 399.518L223.813 387.569L237.723 395.6Z" fill="#644D42"/>
<path d="M270.848 395.6C273.191 391.541 274.105 386.86 273.405 382.504C272.704 378.148 270.442 374.444 267.076 372.141C263.71 369.838 259.492 369.11 255.276 370.103C251.061 371.096 247.163 373.736 244.373 377.489C241.583 381.242 240.109 385.827 240.25 390.314C240.391 394.802 242.136 398.857 245.131 401.658C248.127 404.459 252.149 405.796 256.384 405.399C260.618 405.002 264.747 402.899 267.935 399.518L256.938 387.569L270.848 395.6Z" fill="#644D42"/>
<path d="M38.973 415.591C36.6298 411.533 33.0326 408.401 28.9101 406.829C24.7876 405.258 20.4482 405.365 16.771 407.129C13.0938 408.893 10.3538 412.181 9.10602 416.329C7.85828 420.476 8.19616 425.171 10.0512 429.464C11.9062 433.757 15.1397 437.326 19.0965 439.448C23.0533 441.569 27.4376 442.086 31.3611 440.892C35.2846 439.698 38.4539 436.883 40.2269 433.017C41.9999 429.152 42.2441 424.525 40.9099 420.074L25.0625 423.623L38.973 415.591Z" fill="#644D42"/>
<path d="M72.098 415.591C69.7548 411.533 66.1576 408.401 62.0351 406.829C57.9126 405.258 53.5732 405.365 49.896 407.129C46.2188 408.893 43.4788 412.181 42.231 416.329C40.9833 420.476 41.3212 425.171 43.1762 429.464C45.0312 433.757 48.2647 437.326 52.2215 439.448C56.1783 441.569 60.5626 442.086 64.4861 440.892C68.4096 439.698 71.5789 436.883 73.3519 433.017C75.1249 429.152 75.3691 424.525 74.0349 420.074L58.1875 423.623L72.098 415.591Z" fill="#644D42"/>
<path d="M105.223 415.591C102.88 411.533 99.2826 408.401 95.1601 406.829C91.0376 405.258 86.6982 405.365 83.021 407.129C79.3438 408.893 76.6038 412.181 75.356 416.329C74.1083 420.476 74.4462 425.171 76.3012 429.464C78.1562 433.757 81.3897 437.326 85.3465 439.448C89.3033 441.569 93.6876 442.086 97.6111 440.892C101.535 439.698 104.704 436.883 106.477 433.017C108.25 429.152 108.494 424.525 107.16 420.074L91.3125 423.623L105.223 415.591Z" fill="#644D42"/>
<path d="M138.348 415.591C136.005 411.533 132.408 408.401 128.285 406.829C124.163 405.258 119.823 405.365 116.146 407.129C112.469 408.893 109.729 412.181 108.481 416.329C107.233 420.476 107.571 425.171 109.426 429.464C111.281 433.757 114.515 437.326 118.471 439.448C122.428 441.569 126.813 442.086 130.736 440.892C134.66 439.698 137.829 436.883 139.602 433.017C141.375 429.152 141.619 424.525 140.285 420.074L124.437 423.623L138.348 415.591Z" fill="#644D42"/>
<path d="M171.473 415.591C169.13 411.533 165.533 408.401 161.41 406.829C157.288 405.258 152.948 405.365 149.271 407.129C145.594 408.893 142.854 412.181 141.606 416.329C140.358 420.476 140.696 425.171 142.551 429.464C144.406 433.757 147.64 437.326 151.596 439.448C155.553 441.569 159.938 442.086 163.861 440.892C167.785 439.698 170.954 436.883 172.727 433.017C174.5 429.152 174.744 424.525 173.41 420.074L157.562 423.623L171.473 415.591Z" fill="#644D42"/>
<path d="M204.598 415.591C202.255 411.533 198.658 408.401 194.535 406.829C190.413 405.258 186.073 405.365 182.396 407.129C178.719 408.893 175.979 412.181 174.731 416.329C173.483 420.476 173.821 425.171 175.676 429.464C177.531 433.757 180.765 437.326 184.721 439.448C188.678 441.569 193.063 442.086 196.986 440.892C200.91 439.698 204.079 436.883 205.852 433.017C207.625 429.152 207.869 424.525 206.535 420.074L190.687 423.623L204.598 415.591Z" fill="#644D42"/>
<path d="M237.723 415.591C235.38 411.533 231.783 408.401 227.66 406.829C223.538 405.258 219.198 405.365 215.521 407.129C211.844 408.893 209.104 412.181 207.856 416.329C206.608 420.476 206.946 425.171 208.801 429.464C210.656 433.757 213.89 437.326 217.846 439.448C221.803 441.569 226.188 442.086 230.111 440.892C234.035 439.698 237.204 436.883 238.977 433.017C240.75 429.152 240.994 424.525 239.66 420.074L223.812 423.623L237.723 415.591Z" fill="#644D42"/>
<path d="M270.848 415.591C268.505 411.533 264.908 408.401 260.785 406.829C256.663 405.258 252.323 405.365 248.646 407.129C244.969 408.893 242.229 412.181 240.981 416.329C239.733 420.476 240.071 425.171 241.926 429.464C243.781 433.757 247.015 437.326 250.971 439.448C254.928 441.569 259.313 442.086 263.236 440.892C267.16 439.698 270.329 436.883 272.102 433.017C273.875 429.152 274.119 424.525 272.785 420.074L256.937 423.623L270.848 415.591Z" fill="#644D42"/>
<path d="M38.9731 467.708C41.3163 463.649 42.2303 458.968 41.5298 454.612C40.8294 450.256 38.5669 446.552 35.2007 444.249C31.8346 441.947 27.6165 441.218 23.4011 442.211C19.1856 443.204 15.288 445.845 12.4979 449.597C9.70785 453.35 8.2339 457.935 8.37472 462.423C8.51553 466.91 10.2606 470.965 13.2563 473.766C16.252 476.567 20.2745 477.904 24.5086 477.507C28.7427 477.11 32.872 475.008 36.0598 471.627L25.0625 459.677L38.9731 467.708Z" fill="#644D42"/>
<path d="M72.0981 467.708C74.4413 463.649 75.3553 458.968 74.6548 454.612C73.9544 450.256 71.6919 446.552 68.3257 444.249C64.9596 441.947 60.7415 441.218 56.5261 442.211C52.3106 443.204 48.413 445.845 45.6229 449.597C42.8328 453.35 41.3589 457.935 41.4997 462.423C41.6405 466.91 43.3856 470.965 46.3813 473.766C49.377 476.567 53.3995 477.904 57.6336 477.507C61.8677 477.11 65.997 475.008 69.1848 471.627L58.1875 459.677L72.0981 467.708Z" fill="#644D42"/>
<path d="M105.223 467.708C107.566 463.649 108.48 458.968 107.78 454.612C107.079 450.256 104.817 446.552 101.451 444.249C98.0846 441.947 93.8665 441.218 89.6511 442.211C85.4356 443.204 81.538 445.845 78.7479 449.597C75.9578 453.35 74.4839 457.935 74.6247 462.423C74.7655 466.91 76.5106 470.965 79.5063 473.766C82.502 476.567 86.5245 477.904 90.7586 477.507C94.9927 477.11 99.122 475.008 102.31 471.627L91.3125 459.677L105.223 467.708Z" fill="#644D42"/>
<path d="M138.348 467.708C140.691 463.649 141.605 458.968 140.905 454.612C140.204 450.256 137.942 446.552 134.576 444.249C131.21 441.947 126.992 441.218 122.776 442.211C118.561 443.204 114.663 445.845 111.873 449.597C109.083 453.35 107.609 457.935 107.75 462.423C107.891 466.91 109.636 470.965 112.631 473.766C115.627 476.567 119.649 477.904 123.884 477.507C128.118 477.11 132.247 475.008 135.435 471.627L124.438 459.677L138.348 467.708Z" fill="#644D42"/>
<path d="M171.473 467.708C173.816 463.649 174.73 458.968 174.03 454.612C173.329 450.256 171.067 446.552 167.701 444.249C164.335 441.947 160.117 441.218 155.901 442.211C151.686 443.204 147.788 445.845 144.998 449.597C142.208 453.35 140.734 457.935 140.875 462.423C141.016 466.91 142.761 470.965 145.756 473.766C148.752 476.567 152.774 477.904 157.009 477.507C161.243 477.11 165.372 475.008 168.56 471.627L157.563 459.677L171.473 467.708Z" fill="#644D42"/>
<path d="M204.598 467.708C206.941 463.649 207.855 458.968 207.155 454.612C206.454 450.256 204.192 446.552 200.826 444.249C197.46 441.947 193.242 441.218 189.026 442.211C184.811 443.204 180.913 445.845 178.123 449.597C175.333 453.35 173.859 457.935 174 462.423C174.141 466.91 175.886 470.965 178.881 473.766C181.877 476.567 185.899 477.904 190.134 477.507C194.368 477.11 198.497 475.008 201.685 471.627L190.688 459.677L204.598 467.708Z" fill="#644D42"/>
<path d="M237.723 467.708C240.066 463.649 240.98 458.968 240.28 454.612C239.579 450.256 237.317 446.552 233.951 444.249C230.585 441.947 226.367 441.218 222.151 442.211C217.936 443.204 214.038 445.845 211.248 449.597C208.458 453.35 206.984 457.935 207.125 462.423C207.266 466.91 209.011 470.965 212.006 473.766C215.002 476.567 219.024 477.904 223.259 477.507C227.493 477.11 231.622 475.008 234.81 471.627L223.813 459.677L237.723 467.708Z" fill="#644D42"/>
<path d="M270.848 467.708C273.191 463.649 274.105 458.968 273.405 454.612C272.704 450.256 270.442 446.552 267.076 444.249C263.71 441.947 259.492 441.218 255.276 442.211C251.061 443.204 247.163 445.845 244.373 449.597C241.583 453.35 240.109 457.935 240.25 462.423C240.391 466.91 242.136 470.965 245.131 473.766C248.127 476.567 252.149 477.904 256.384 477.507C260.618 477.11 264.747 475.008 267.935 471.627L256.938 459.677L270.848 467.708Z" fill="#644D42"/>
</g>
<defs>
<linearGradient id="paint0_linear_856_8627" x1="140.5" y1="0" x2="140.5" y2="444" gradientUnits="userSpaceOnUse">
<stop offset="0.0472435" stop-color="#97806D"/>
<stop offset="0.8" stop-color="#644D42"/>
<stop offset="1" stop-color="#644D42"/>
</linearGradient>
<clipPath id="clip0_856_8627">
<rect width="264" height="437" fill="white" transform="translate(9 3)"/>
</clipPath>
</defs>
</svg>
