<svg width="281" height="444" viewBox="0 0 281 444" fill="none" xmlns="http://www.w3.org/2000/svg">
<rect width="281" height="444" rx="24" clip-path="url(#clip0_856_8626)" fill="url(#paint0_linear_856_8626)" fill-opacity="0.8"/>
<g clip-path="url(#clip0_856_8626)">
<path d="M39.9731 36.0583C42.3163 31.9998 43.2303 27.3184 42.5298 22.9626C41.8294 18.6068 39.5669 14.9023 36.2007 12.5996C32.8346 10.297 28.6165 9.56837 24.4011 10.5614C20.1856 11.5544 16.288 14.1949 13.4979 17.9477C10.7078 21.7006 9.2339 26.2852 9.37472 30.7729C9.51553 35.2605 11.2606 39.3155 14.2563 42.1164C17.252 44.9173 21.2745 46.2545 25.5086 45.8573C29.7427 45.46 33.872 43.3579 37.0598 39.9769L26.0625 28.0271L39.9731 36.0583Z" fill="#3E3232"/>
<path d="M73.0981 36.0583C75.4413 31.9998 76.3553 27.3184 75.6548 22.9626C74.9544 18.6068 72.6919 14.9023 69.3257 12.5996C65.9596 10.297 61.7415 9.56837 57.5261 10.5614C53.3106 11.5544 49.413 14.1949 46.6229 17.9477C43.8328 21.7006 42.3589 26.2852 42.4997 30.7729C42.6405 35.2605 44.3856 39.3155 47.3813 42.1164C50.377 44.9173 54.3995 46.2545 58.6336 45.8573C62.8677 45.46 66.997 43.3579 70.1848 39.9769L59.1875 28.0271L73.0981 36.0583Z" fill="#3E3232"/>
<path d="M106.223 36.0583C108.566 31.9998 109.48 27.3184 108.78 22.9626C108.079 18.6068 105.817 14.9023 102.451 12.5996C99.0846 10.297 94.8665 9.56837 90.6511 10.5614C86.4356 11.5544 82.538 14.1949 79.7479 17.9477C76.9578 21.7006 75.4839 26.2852 75.6247 30.7729C75.7655 35.2605 77.5106 39.3155 80.5063 42.1164C83.502 44.9173 87.5245 46.2545 91.7586 45.8573C95.9927 45.46 100.122 43.3579 103.31 39.9769L92.3125 28.0271L106.223 36.0583Z" fill="#3E3232"/>
<path d="M139.348 36.0583C141.691 31.9998 142.605 27.3184 141.905 22.9626C141.204 18.6068 138.942 14.9023 135.576 12.5996C132.21 10.297 127.992 9.56837 123.776 10.5614C119.561 11.5544 115.663 14.1949 112.873 17.9477C110.083 21.7006 108.609 26.2852 108.75 30.7729C108.891 35.2605 110.636 39.3155 113.631 42.1164C116.627 44.9173 120.649 46.2545 124.884 45.8573C129.118 45.46 133.247 43.3579 136.435 39.9769L125.438 28.0271L139.348 36.0583Z" fill="#3E3232"/>
<path d="M172.473 36.0583C174.816 31.9998 175.73 27.3184 175.03 22.9626C174.329 18.6068 172.067 14.9023 168.701 12.5996C165.335 10.297 161.117 9.56837 156.901 10.5614C152.686 11.5544 148.788 14.1949 145.998 17.9477C143.208 21.7006 141.734 26.2852 141.875 30.7729C142.016 35.2605 143.761 39.3155 146.756 42.1164C149.752 44.9173 153.774 46.2545 158.009 45.8573C162.243 45.46 166.372 43.3579 169.56 39.9769L158.563 28.0271L172.473 36.0583Z" fill="#3E3232"/>
<path d="M205.598 36.0583C207.941 31.9998 208.855 27.3184 208.155 22.9626C207.454 18.6068 205.192 14.9023 201.826 12.5996C198.46 10.297 194.242 9.56837 190.026 10.5614C185.811 11.5544 181.913 14.1949 179.123 17.9477C176.333 21.7006 174.859 26.2852 175 30.7729C175.141 35.2605 176.886 39.3155 179.881 42.1164C182.877 44.9173 186.899 46.2545 191.134 45.8573C195.368 45.46 199.497 43.3579 202.685 39.9769L191.688 28.0271L205.598 36.0583Z" fill="#3E3232"/>
<path d="M238.723 36.0583C241.066 31.9998 241.98 27.3184 241.28 22.9626C240.579 18.6068 238.317 14.9023 234.951 12.5996C231.585 10.297 227.367 9.56837 223.151 10.5614C218.936 11.5544 215.038 14.1949 212.248 17.9477C209.458 21.7006 207.984 26.2852 208.125 30.7729C208.266 35.2605 210.011 39.3155 213.006 42.1164C216.002 44.9173 220.024 46.2545 224.259 45.8573C228.493 45.46 232.622 43.3579 235.81 39.9769L224.813 28.0271L238.723 36.0583Z" fill="#3E3232"/>
<path d="M271.848 36.0583C274.191 31.9998 275.105 27.3184 274.405 22.9626C273.704 18.6068 271.442 14.9023 268.076 12.5996C264.71 10.297 260.492 9.56837 256.276 10.5614C252.061 11.5544 248.163 14.1949 245.373 17.9477C242.583 21.7006 241.109 26.2852 241.25 30.7729C241.391 35.2605 243.136 39.3155 246.131 42.1164C249.127 44.9173 253.149 46.2545 257.384 45.8573C261.618 45.46 265.747 43.3579 268.935 39.9769L257.938 28.0271L271.848 36.0583Z" fill="#3E3232"/>
<path d="M39.973 56.05C37.6298 51.9915 34.0326 48.8592 29.9101 47.288C25.7876 45.7167 21.4482 45.8238 17.771 47.5876C14.0938 49.3515 11.3538 52.6401 10.106 56.7873C8.85828 60.9345 9.19616 65.6301 11.0512 69.9229C12.9062 74.2156 16.1397 77.7844 20.0965 79.9063C24.0533 82.0281 28.4376 82.5444 32.3611 81.3504C36.2846 80.1565 39.4539 77.3416 41.2269 73.4761C42.9999 69.6106 43.2441 64.9835 41.9099 60.5323L26.0625 64.0813L39.973 56.05Z" fill="#3E3232"/>
<path d="M73.098 56.05C70.7548 51.9915 67.1576 48.8592 63.0351 47.288C58.9126 45.7167 54.5732 45.8238 50.896 47.5876C47.2188 49.3515 44.4788 52.6401 43.231 56.7873C41.9833 60.9345 42.3212 65.6301 44.1762 69.9229C46.0312 74.2156 49.2647 77.7844 53.2215 79.9063C57.1783 82.0281 61.5626 82.5444 65.4861 81.3504C69.4096 80.1565 72.5789 77.3416 74.3519 73.4761C76.1249 69.6106 76.3691 64.9835 75.0349 60.5323L59.1875 64.0813L73.098 56.05Z" fill="#3E3232"/>
<path d="M106.223 56.05C103.88 51.9915 100.283 48.8592 96.1601 47.288C92.0376 45.7167 87.6982 45.8238 84.021 47.5876C80.3438 49.3515 77.6038 52.6401 76.356 56.7873C75.1083 60.9345 75.4462 65.6301 77.3012 69.9229C79.1562 74.2156 82.3897 77.7844 86.3465 79.9063C90.3033 82.0281 94.6876 82.5444 98.6111 81.3504C102.535 80.1565 105.704 77.3416 107.477 73.4761C109.25 69.6106 109.494 64.9835 108.16 60.5323L92.3125 64.0813L106.223 56.05Z" fill="#3E3232"/>
<path d="M139.348 56.05C137.005 51.9915 133.408 48.8592 129.285 47.288C125.163 45.7167 120.823 45.8238 117.146 47.5876C113.469 49.3515 110.729 52.6401 109.481 56.7873C108.233 60.9345 108.571 65.6301 110.426 69.9229C112.281 74.2156 115.515 77.7844 119.471 79.9063C123.428 82.0281 127.813 82.5444 131.736 81.3504C135.66 80.1565 138.829 77.3416 140.602 73.4761C142.375 69.6106 142.619 64.9835 141.285 60.5323L125.437 64.0813L139.348 56.05Z" fill="#3E3232"/>
<path d="M172.473 56.05C170.13 51.9915 166.533 48.8592 162.41 47.288C158.288 45.7167 153.948 45.8238 150.271 47.5876C146.594 49.3515 143.854 52.6401 142.606 56.7873C141.358 60.9345 141.696 65.6301 143.551 69.9229C145.406 74.2156 148.64 77.7844 152.596 79.9063C156.553 82.0281 160.938 82.5444 164.861 81.3504C168.785 80.1565 171.954 77.3416 173.727 73.4761C175.5 69.6106 175.744 64.9835 174.41 60.5323L158.562 64.0813L172.473 56.05Z" fill="#3E3232"/>
<path d="M205.598 56.05C203.255 51.9915 199.658 48.8592 195.535 47.288C191.413 45.7167 187.073 45.8238 183.396 47.5876C179.719 49.3515 176.979 52.6401 175.731 56.7873C174.483 60.9345 174.821 65.6301 176.676 69.9229C178.531 74.2156 181.765 77.7844 185.721 79.9063C189.678 82.0281 194.063 82.5444 197.986 81.3504C201.91 80.1565 205.079 77.3416 206.852 73.4761C208.625 69.6106 208.869 64.9835 207.535 60.5323L191.687 64.0813L205.598 56.05Z" fill="#3E3232"/>
<path d="M238.723 56.05C236.38 51.9915 232.783 48.8592 228.66 47.288C224.538 45.7167 220.198 45.8238 216.521 47.5876C212.844 49.3515 210.104 52.6401 208.856 56.7873C207.608 60.9345 207.946 65.6301 209.801 69.9229C211.656 74.2156 214.89 77.7844 218.846 79.9063C222.803 82.0281 227.188 82.5444 231.111 81.3504C235.035 80.1565 238.204 77.3416 239.977 73.4761C241.75 69.6106 241.994 64.9835 240.66 60.5323L224.812 64.0813L238.723 56.05Z" fill="#3E3232"/>
<path d="M271.848 56.05C269.505 51.9915 265.908 48.8592 261.785 47.288C257.663 45.7167 253.323 45.8238 249.646 47.5876C245.969 49.3515 243.229 52.6401 241.981 56.7873C240.733 60.9345 241.071 65.6301 242.926 69.9229C244.781 74.2156 248.015 77.7844 251.971 79.9063C255.928 82.0281 260.313 82.5444 264.236 81.3504C268.16 80.1565 271.329 77.3416 273.102 73.4761C274.875 69.6106 275.119 64.9835 273.785 60.5323L257.937 64.0813L271.848 56.05Z" fill="#3E3232"/>
<path d="M39.9731 108.167C42.3163 104.108 43.2303 99.4268 42.5298 95.071C41.8294 90.7152 39.5669 87.0107 36.2007 84.708C32.8346 82.4054 28.6165 81.6768 24.4011 82.6698C20.1856 83.6628 16.288 86.3032 13.4979 90.0561C10.7078 93.809 9.2339 98.3936 9.37472 102.881C9.51553 107.369 11.2606 111.424 14.2563 114.225C17.252 117.026 21.2745 118.363 25.5086 117.966C29.7427 117.568 33.872 115.466 37.0598 112.085L26.0625 100.135L39.9731 108.167Z" fill="#3E3232"/>
<path d="M73.0981 108.167C75.4413 104.108 76.3553 99.4268 75.6548 95.071C74.9544 90.7152 72.6919 87.0107 69.3257 84.708C65.9596 82.4054 61.7415 81.6768 57.5261 82.6698C53.3106 83.6628 49.413 86.3032 46.6229 90.0561C43.8328 93.809 42.3589 98.3936 42.4997 102.881C42.6405 107.369 44.3856 111.424 47.3813 114.225C50.377 117.026 54.3995 118.363 58.6336 117.966C62.8677 117.568 66.997 115.466 70.1848 112.085L59.1875 100.135L73.0981 108.167Z" fill="#3E3232"/>
<path d="M106.223 108.167C108.566 104.108 109.48 99.4268 108.78 95.071C108.079 90.7152 105.817 87.0107 102.451 84.708C99.0846 82.4054 94.8665 81.6768 90.6511 82.6698C86.4356 83.6628 82.538 86.3032 79.7479 90.0561C76.9578 93.809 75.4839 98.3936 75.6247 102.881C75.7655 107.369 77.5106 111.424 80.5063 114.225C83.502 117.026 87.5245 118.363 91.7586 117.966C95.9927 117.568 100.122 115.466 103.31 112.085L92.3125 100.135L106.223 108.167Z" fill="#3E3232"/>
<path d="M139.348 108.167C141.691 104.108 142.605 99.4268 141.905 95.071C141.204 90.7152 138.942 87.0107 135.576 84.708C132.21 82.4054 127.992 81.6768 123.776 82.6698C119.561 83.6628 115.663 86.3032 112.873 90.0561C110.083 93.809 108.609 98.3936 108.75 102.881C108.891 107.369 110.636 111.424 113.631 114.225C116.627 117.026 120.649 118.363 124.884 117.966C129.118 117.568 133.247 115.466 136.435 112.085L125.438 100.135L139.348 108.167Z" fill="#3E3232"/>
<path d="M172.473 108.167C174.816 104.108 175.73 99.4268 175.03 95.071C174.329 90.7152 172.067 87.0107 168.701 84.708C165.335 82.4054 161.117 81.6768 156.901 82.6698C152.686 83.6628 148.788 86.3032 145.998 90.0561C143.208 93.809 141.734 98.3936 141.875 102.881C142.016 107.369 143.761 111.424 146.756 114.225C149.752 117.026 153.774 118.363 158.009 117.966C162.243 117.568 166.372 115.466 169.56 112.085L158.563 100.135L172.473 108.167Z" fill="#3E3232"/>
<path d="M205.598 108.167C207.941 104.108 208.855 99.4268 208.155 95.071C207.454 90.7152 205.192 87.0107 201.826 84.708C198.46 82.4054 194.242 81.6768 190.026 82.6698C185.811 83.6628 181.913 86.3032 179.123 90.0561C176.333 93.809 174.859 98.3936 175 102.881C175.141 107.369 176.886 111.424 179.881 114.225C182.877 117.026 186.899 118.363 191.134 117.966C195.368 117.568 199.497 115.466 202.685 112.085L191.688 100.135L205.598 108.167Z" fill="#3E3232"/>
<path d="M238.723 108.167C241.066 104.108 241.98 99.4268 241.28 95.071C240.579 90.7152 238.317 87.0107 234.951 84.708C231.585 82.4054 227.367 81.6768 223.151 82.6698C218.936 83.6628 215.038 86.3032 212.248 90.0561C209.458 93.809 207.984 98.3936 208.125 102.881C208.266 107.369 210.011 111.424 213.006 114.225C216.002 117.026 220.024 118.363 224.259 117.966C228.493 117.568 232.622 115.466 235.81 112.085L224.813 100.135L238.723 108.167Z" fill="#3E3232"/>
<path d="M271.848 108.167C274.191 104.108 275.105 99.4268 274.405 95.071C273.704 90.7152 271.442 87.0107 268.076 84.708C264.71 82.4054 260.492 81.6768 256.276 82.6698C252.061 83.6628 248.163 86.3032 245.373 90.0561C242.583 93.809 241.109 98.3936 241.25 102.881C241.391 107.369 243.136 111.424 246.131 114.225C249.127 117.026 253.149 118.363 257.384 117.966C261.618 117.568 265.747 115.466 268.935 112.085L257.938 100.135L271.848 108.167Z" fill="#3E3232"/>
<path d="M39.973 128.158C37.6298 124.1 34.0326 120.968 29.9101 119.396C25.7876 117.825 21.4482 117.932 17.771 119.696C14.0938 121.46 11.3538 124.749 10.106 128.896C8.85828 133.043 9.19616 137.739 11.0512 142.031C12.9062 146.324 16.1397 149.893 20.0965 152.015C24.0533 154.137 28.4376 154.653 32.3611 153.459C36.2846 152.265 39.4539 149.45 41.2269 145.585C42.9999 141.719 43.2441 137.092 41.9099 132.641L26.0625 136.19L39.973 128.158Z" fill="#3E3232"/>
<path d="M73.098 128.158C70.7548 124.1 67.1576 120.968 63.0351 119.396C58.9126 117.825 54.5732 117.932 50.896 119.696C47.2188 121.46 44.4788 124.749 43.231 128.896C41.9833 133.043 42.3212 137.739 44.1762 142.031C46.0312 146.324 49.2647 149.893 53.2215 152.015C57.1783 154.137 61.5626 154.653 65.4861 153.459C69.4096 152.265 72.5789 149.45 74.3519 145.585C76.1249 141.719 76.3691 137.092 75.0349 132.641L59.1875 136.19L73.098 128.158Z" fill="#3E3232"/>
<path d="M106.223 128.158C103.88 124.1 100.283 120.968 96.1601 119.396C92.0376 117.825 87.6982 117.932 84.021 119.696C80.3438 121.46 77.6038 124.749 76.356 128.896C75.1083 133.043 75.4462 137.739 77.3012 142.031C79.1562 146.324 82.3897 149.893 86.3465 152.015C90.3033 154.137 94.6876 154.653 98.6111 153.459C102.535 152.265 105.704 149.45 107.477 145.585C109.25 141.719 109.494 137.092 108.16 132.641L92.3125 136.19L106.223 128.158Z" fill="#3E3232"/>
<path d="M139.348 128.158C137.005 124.1 133.408 120.968 129.285 119.396C125.163 117.825 120.823 117.932 117.146 119.696C113.469 121.46 110.729 124.749 109.481 128.896C108.233 133.043 108.571 137.739 110.426 142.031C112.281 146.324 115.515 149.893 119.471 152.015C123.428 154.137 127.813 154.653 131.736 153.459C135.66 152.265 138.829 149.45 140.602 145.585C142.375 141.719 142.619 137.092 141.285 132.641L125.437 136.19L139.348 128.158Z" fill="#3E3232"/>
<path d="M172.473 128.158C170.13 124.1 166.533 120.968 162.41 119.396C158.288 117.825 153.948 117.932 150.271 119.696C146.594 121.46 143.854 124.749 142.606 128.896C141.358 133.043 141.696 137.739 143.551 142.031C145.406 146.324 148.64 149.893 152.596 152.015C156.553 154.137 160.938 154.653 164.861 153.459C168.785 152.265 171.954 149.45 173.727 145.585C175.5 141.719 175.744 137.092 174.41 132.641L158.562 136.19L172.473 128.158Z" fill="#3E3232"/>
<path d="M205.598 128.158C203.255 124.1 199.658 120.968 195.535 119.396C191.413 117.825 187.073 117.932 183.396 119.696C179.719 121.46 176.979 124.749 175.731 128.896C174.483 133.043 174.821 137.739 176.676 142.031C178.531 146.324 181.765 149.893 185.721 152.015C189.678 154.137 194.063 154.653 197.986 153.459C201.91 152.265 205.079 149.45 206.852 145.585C208.625 141.719 208.869 137.092 207.535 132.641L191.687 136.19L205.598 128.158Z" fill="#3E3232"/>
<path d="M238.723 128.158C236.38 124.1 232.783 120.968 228.66 119.396C224.538 117.825 220.198 117.932 216.521 119.696C212.844 121.46 210.104 124.749 208.856 128.896C207.608 133.043 207.946 137.739 209.801 142.031C211.656 146.324 214.89 149.893 218.846 152.015C222.803 154.137 227.188 154.653 231.111 153.459C235.035 152.265 238.204 149.45 239.977 145.585C241.75 141.719 241.994 137.092 240.66 132.641L224.812 136.19L238.723 128.158Z" fill="#3E3232"/>
<path d="M271.848 128.158C269.505 124.1 265.908 120.968 261.785 119.396C257.663 117.825 253.323 117.932 249.646 119.696C245.969 121.46 243.229 124.749 241.981 128.896C240.733 133.043 241.071 137.739 242.926 142.031C244.781 146.324 248.015 149.893 251.971 152.015C255.928 154.137 260.313 154.653 264.236 153.459C268.16 152.265 271.329 149.45 273.102 145.585C274.875 141.719 275.119 137.092 273.785 132.641L257.937 136.19L271.848 128.158Z" fill="#3E3232"/>
<path d="M39.9731 180.275C42.3163 176.217 43.2303 171.535 42.5298 167.179C41.8294 162.824 39.5669 159.119 36.2007 156.816C32.8346 154.514 28.6165 153.785 24.4011 154.778C20.1856 155.771 16.288 158.412 13.4979 162.165C10.7078 165.917 9.2339 170.502 9.37472 174.99C9.51553 179.477 11.2606 183.532 14.2563 186.333C17.252 189.134 21.2745 190.471 25.5086 190.074C29.7427 189.677 33.872 187.575 37.0598 184.194L26.0625 172.244L39.9731 180.275Z" fill="#3E3232"/>
<path d="M73.0981 180.275C75.4413 176.217 76.3553 171.535 75.6548 167.179C74.9544 162.824 72.6919 159.119 69.3257 156.816C65.9596 154.514 61.7415 153.785 57.5261 154.778C53.3106 155.771 49.413 158.412 46.6229 162.165C43.8328 165.917 42.3589 170.502 42.4997 174.99C42.6405 179.477 44.3856 183.532 47.3813 186.333C50.377 189.134 54.3995 190.471 58.6336 190.074C62.8677 189.677 66.997 187.575 70.1848 184.194L59.1875 172.244L73.0981 180.275Z" fill="#3E3232"/>
<path d="M106.223 180.275C108.566 176.217 109.48 171.535 108.78 167.179C108.079 162.824 105.817 159.119 102.451 156.816C99.0846 154.514 94.8665 153.785 90.6511 154.778C86.4356 155.771 82.538 158.412 79.7479 162.165C76.9578 165.917 75.4839 170.502 75.6247 174.99C75.7655 179.477 77.5106 183.532 80.5063 186.333C83.502 189.134 87.5245 190.471 91.7586 190.074C95.9927 189.677 100.122 187.575 103.31 184.194L92.3125 172.244L106.223 180.275Z" fill="#3E3232"/>
<path d="M139.348 180.275C141.691 176.217 142.605 171.535 141.905 167.179C141.204 162.824 138.942 159.119 135.576 156.816C132.21 154.514 127.992 153.785 123.776 154.778C119.561 155.771 115.663 158.412 112.873 162.165C110.083 165.917 108.609 170.502 108.75 174.99C108.891 179.477 110.636 183.532 113.631 186.333C116.627 189.134 120.649 190.471 124.884 190.074C129.118 189.677 133.247 187.575 136.435 184.194L125.438 172.244L139.348 180.275Z" fill="#3E3232"/>
<path d="M172.473 180.275C174.816 176.217 175.73 171.535 175.03 167.179C174.329 162.824 172.067 159.119 168.701 156.816C165.335 154.514 161.117 153.785 156.901 154.778C152.686 155.771 148.788 158.412 145.998 162.165C143.208 165.917 141.734 170.502 141.875 174.99C142.016 179.477 143.761 183.532 146.756 186.333C149.752 189.134 153.774 190.471 158.009 190.074C162.243 189.677 166.372 187.575 169.56 184.194L158.563 172.244L172.473 180.275Z" fill="#3E3232"/>
<path d="M205.598 180.275C207.941 176.217 208.855 171.535 208.155 167.179C207.454 162.824 205.192 159.119 201.826 156.816C198.46 154.514 194.242 153.785 190.026 154.778C185.811 155.771 181.913 158.412 179.123 162.165C176.333 165.917 174.859 170.502 175 174.99C175.141 179.477 176.886 183.532 179.881 186.333C182.877 189.134 186.899 190.471 191.134 190.074C195.368 189.677 199.497 187.575 202.685 184.194L191.688 172.244L205.598 180.275Z" fill="#3E3232"/>
<path d="M238.723 180.275C241.066 176.217 241.98 171.535 241.28 167.179C240.579 162.824 238.317 159.119 234.951 156.816C231.585 154.514 227.367 153.785 223.151 154.778C218.936 155.771 215.038 158.412 212.248 162.165C209.458 165.917 207.984 170.502 208.125 174.99C208.266 179.477 210.011 183.532 213.006 186.333C216.002 189.134 220.024 190.471 224.259 190.074C228.493 189.677 232.622 187.575 235.81 184.194L224.813 172.244L238.723 180.275Z" fill="#3E3232"/>
<path d="M271.848 180.275C274.191 176.217 275.105 171.535 274.405 167.179C273.704 162.824 271.442 159.119 268.076 156.816C264.71 154.514 260.492 153.785 256.276 154.778C252.061 155.771 248.163 158.412 245.373 162.165C242.583 165.917 241.109 170.502 241.25 174.99C241.391 179.477 243.136 183.532 246.131 186.333C249.127 189.134 253.149 190.471 257.384 190.074C261.618 189.677 265.747 187.575 268.935 184.194L257.938 172.244L271.848 180.275Z" fill="#3E3232"/>
<path d="M39.973 200.266C37.6298 196.208 34.0326 193.076 29.9101 191.504C25.7876 189.933 21.4482 190.04 17.771 191.804C14.0938 193.568 11.3538 196.856 10.106 201.004C8.85828 205.151 9.19616 209.846 11.0512 214.139C12.9062 218.432 16.1397 222.001 20.0965 224.123C24.0533 226.244 28.4376 226.761 32.3611 225.567C36.2846 224.373 39.4539 221.558 41.2269 217.692C42.9999 213.827 43.2441 209.2 41.9099 204.749L26.0625 208.298L39.973 200.266Z" fill="#3E3232"/>
<path d="M73.098 200.266C70.7548 196.208 67.1576 193.076 63.0351 191.504C58.9126 189.933 54.5732 190.04 50.896 191.804C47.2188 193.568 44.4788 196.856 43.231 201.004C41.9833 205.151 42.3212 209.846 44.1762 214.139C46.0312 218.432 49.2647 222.001 53.2215 224.123C57.1783 226.244 61.5626 226.761 65.4861 225.567C69.4096 224.373 72.5789 221.558 74.3519 217.692C76.1249 213.827 76.3691 209.2 75.0349 204.749L59.1875 208.298L73.098 200.266Z" fill="#3E3232"/>
<path d="M106.223 200.266C103.88 196.208 100.283 193.076 96.1601 191.504C92.0376 189.933 87.6982 190.04 84.021 191.804C80.3438 193.568 77.6038 196.856 76.356 201.004C75.1083 205.151 75.4462 209.846 77.3012 214.139C79.1562 218.432 82.3897 222.001 86.3465 224.123C90.3033 226.244 94.6876 226.761 98.6111 225.567C102.535 224.373 105.704 221.558 107.477 217.692C109.25 213.827 109.494 209.2 108.16 204.749L92.3125 208.298L106.223 200.266Z" fill="#3E3232"/>
<path d="M139.348 200.266C137.005 196.208 133.408 193.076 129.285 191.504C125.163 189.933 120.823 190.04 117.146 191.804C113.469 193.568 110.729 196.856 109.481 201.004C108.233 205.151 108.571 209.846 110.426 214.139C112.281 218.432 115.515 222.001 119.471 224.123C123.428 226.244 127.813 226.761 131.736 225.567C135.66 224.373 138.829 221.558 140.602 217.692C142.375 213.827 142.619 209.2 141.285 204.749L125.437 208.298L139.348 200.266Z" fill="#3E3232"/>
<path d="M172.473 200.266C170.13 196.208 166.533 193.076 162.41 191.504C158.288 189.933 153.948 190.04 150.271 191.804C146.594 193.568 143.854 196.856 142.606 201.004C141.358 205.151 141.696 209.846 143.551 214.139C145.406 218.432 148.64 222.001 152.596 224.123C156.553 226.244 160.938 226.761 164.861 225.567C168.785 224.373 171.954 221.558 173.727 217.692C175.5 213.827 175.744 209.2 174.41 204.749L158.562 208.298L172.473 200.266Z" fill="#3E3232"/>
<path d="M205.598 200.266C203.255 196.208 199.658 193.076 195.535 191.504C191.413 189.933 187.073 190.04 183.396 191.804C179.719 193.568 176.979 196.856 175.731 201.004C174.483 205.151 174.821 209.846 176.676 214.139C178.531 218.432 181.765 222.001 185.721 224.123C189.678 226.244 194.063 226.761 197.986 225.567C201.91 224.373 205.079 221.558 206.852 217.692C208.625 213.827 208.869 209.2 207.535 204.749L191.687 208.298L205.598 200.266Z" fill="#3E3232"/>
<path d="M238.723 200.266C236.38 196.208 232.783 193.076 228.66 191.504C224.538 189.933 220.198 190.04 216.521 191.804C212.844 193.568 210.104 196.856 208.856 201.004C207.608 205.151 207.946 209.846 209.801 214.139C211.656 218.432 214.89 222.001 218.846 224.123C222.803 226.244 227.188 226.761 231.111 225.567C235.035 224.373 238.204 221.558 239.977 217.692C241.75 213.827 241.994 209.2 240.66 204.749L224.812 208.298L238.723 200.266Z" fill="#3E3232"/>
<path d="M271.848 200.266C269.505 196.208 265.908 193.076 261.785 191.504C257.663 189.933 253.323 190.04 249.646 191.804C245.969 193.568 243.229 196.856 241.981 201.004C240.733 205.151 241.071 209.846 242.926 214.139C244.781 218.432 248.015 222.001 251.971 224.123C255.928 226.244 260.313 226.761 264.236 225.567C268.16 224.373 271.329 221.558 273.102 217.692C274.875 213.827 275.119 209.2 273.785 204.749L257.937 208.298L271.848 200.266Z" fill="#3E3232"/>
<path d="M39.9731 252.383C42.3163 248.324 43.2303 243.643 42.5298 239.287C41.8294 234.931 39.5669 231.227 36.2007 228.924C32.8346 226.622 28.6165 225.893 24.4011 226.886C20.1856 227.879 16.288 230.52 13.4979 234.272C10.7078 238.025 9.2339 242.61 9.37472 247.098C9.51553 251.585 11.2606 255.64 14.2563 258.441C17.252 261.242 21.2745 262.579 25.5086 262.182C29.7427 261.785 33.872 259.683 37.0598 256.302L26.0625 244.352L39.9731 252.383Z" fill="#3E3232"/>
<path d="M73.0981 252.383C75.4413 248.324 76.3553 243.643 75.6548 239.287C74.9544 234.931 72.6919 231.227 69.3257 228.924C65.9596 226.622 61.7415 225.893 57.5261 226.886C53.3106 227.879 49.413 230.52 46.6229 234.272C43.8328 238.025 42.3589 242.61 42.4997 247.098C42.6405 251.585 44.3856 255.64 47.3813 258.441C50.377 261.242 54.3995 262.579 58.6336 262.182C62.8677 261.785 66.997 259.683 70.1848 256.302L59.1875 244.352L73.0981 252.383Z" fill="#3E3232"/>
<path d="M106.223 252.383C108.566 248.324 109.48 243.643 108.78 239.287C108.079 234.931 105.817 231.227 102.451 228.924C99.0846 226.622 94.8665 225.893 90.6511 226.886C86.4356 227.879 82.538 230.52 79.7479 234.272C76.9578 238.025 75.4839 242.61 75.6247 247.098C75.7655 251.585 77.5106 255.64 80.5063 258.441C83.502 261.242 87.5245 262.579 91.7586 262.182C95.9927 261.785 100.122 259.683 103.31 256.302L92.3125 244.352L106.223 252.383Z" fill="#3E3232"/>
<path d="M139.348 252.383C141.691 248.324 142.605 243.643 141.905 239.287C141.204 234.931 138.942 231.227 135.576 228.924C132.21 226.622 127.992 225.893 123.776 226.886C119.561 227.879 115.663 230.52 112.873 234.272C110.083 238.025 108.609 242.61 108.75 247.098C108.891 251.585 110.636 255.64 113.631 258.441C116.627 261.242 120.649 262.579 124.884 262.182C129.118 261.785 133.247 259.683 136.435 256.302L125.438 244.352L139.348 252.383Z" fill="#3E3232"/>
<path d="M172.473 252.383C174.816 248.324 175.73 243.643 175.03 239.287C174.329 234.931 172.067 231.227 168.701 228.924C165.335 226.622 161.117 225.893 156.901 226.886C152.686 227.879 148.788 230.52 145.998 234.272C143.208 238.025 141.734 242.61 141.875 247.098C142.016 251.585 143.761 255.64 146.756 258.441C149.752 261.242 153.774 262.579 158.009 262.182C162.243 261.785 166.372 259.683 169.56 256.302L158.563 244.352L172.473 252.383Z" fill="#3E3232"/>
<path d="M205.598 252.383C207.941 248.324 208.855 243.643 208.155 239.287C207.454 234.931 205.192 231.227 201.826 228.924C198.46 226.622 194.242 225.893 190.026 226.886C185.811 227.879 181.913 230.52 179.123 234.272C176.333 238.025 174.859 242.61 175 247.098C175.141 251.585 176.886 255.64 179.881 258.441C182.877 261.242 186.899 262.579 191.134 262.182C195.368 261.785 199.497 259.683 202.685 256.302L191.688 244.352L205.598 252.383Z" fill="#3E3232"/>
<path d="M238.723 252.383C241.066 248.324 241.98 243.643 241.28 239.287C240.579 234.931 238.317 231.227 234.951 228.924C231.585 226.622 227.367 225.893 223.151 226.886C218.936 227.879 215.038 230.52 212.248 234.272C209.458 238.025 207.984 242.61 208.125 247.098C208.266 251.585 210.011 255.64 213.006 258.441C216.002 261.242 220.024 262.579 224.259 262.182C228.493 261.785 232.622 259.683 235.81 256.302L224.813 244.352L238.723 252.383Z" fill="#3E3232"/>
<path d="M271.848 252.383C274.191 248.324 275.105 243.643 274.405 239.287C273.704 234.931 271.442 231.227 268.076 228.924C264.71 226.622 260.492 225.893 256.276 226.886C252.061 227.879 248.163 230.52 245.373 234.272C242.583 238.025 241.109 242.61 241.25 247.098C241.391 251.585 243.136 255.64 246.131 258.441C249.127 261.242 253.149 262.579 257.384 262.182C261.618 261.785 265.747 259.683 268.935 256.302L257.938 244.352L271.848 252.383Z" fill="#3E3232"/>
<path d="M39.973 272.375C37.6298 268.316 34.0326 265.184 29.9101 263.613C25.7876 262.041 21.4482 262.148 17.771 263.912C14.0938 265.676 11.3538 268.965 10.106 273.112C8.85828 277.259 9.19616 281.955 11.0512 286.248C12.9062 290.54 16.1397 294.109 20.0965 296.231C24.0533 298.353 28.4376 298.869 32.3611 297.675C36.2846 296.481 39.4539 293.666 41.2269 289.801C42.9999 285.935 43.2441 281.308 41.9099 276.857L26.0625 280.406L39.973 272.375Z" fill="#3E3232"/>
<path d="M73.098 272.375C70.7548 268.316 67.1576 265.184 63.0351 263.613C58.9126 262.041 54.5732 262.148 50.896 263.912C47.2188 265.676 44.4788 268.965 43.231 273.112C41.9833 277.259 42.3212 281.955 44.1762 286.248C46.0312 290.54 49.2647 294.109 53.2215 296.231C57.1783 298.353 61.5626 298.869 65.4861 297.675C69.4096 296.481 72.5789 293.666 74.3519 289.801C76.1249 285.935 76.3691 281.308 75.0349 276.857L59.1875 280.406L73.098 272.375Z" fill="#3E3232"/>
<path d="M106.223 272.375C103.88 268.316 100.283 265.184 96.1601 263.613C92.0376 262.041 87.6982 262.148 84.021 263.912C80.3438 265.676 77.6038 268.965 76.356 273.112C75.1083 277.259 75.4462 281.955 77.3012 286.248C79.1562 290.54 82.3897 294.109 86.3465 296.231C90.3033 298.353 94.6876 298.869 98.6111 297.675C102.535 296.481 105.704 293.666 107.477 289.801C109.25 285.935 109.494 281.308 108.16 276.857L92.3125 280.406L106.223 272.375Z" fill="#3E3232"/>
<path d="M139.348 272.375C137.005 268.316 133.408 265.184 129.285 263.613C125.163 262.041 120.823 262.148 117.146 263.912C113.469 265.676 110.729 268.965 109.481 273.112C108.233 277.259 108.571 281.955 110.426 286.248C112.281 290.54 115.515 294.109 119.471 296.231C123.428 298.353 127.813 298.869 131.736 297.675C135.66 296.481 138.829 293.666 140.602 289.801C142.375 285.935 142.619 281.308 141.285 276.857L125.437 280.406L139.348 272.375Z" fill="#3E3232"/>
<path d="M172.473 272.375C170.13 268.316 166.533 265.184 162.41 263.613C158.288 262.041 153.948 262.148 150.271 263.912C146.594 265.676 143.854 268.965 142.606 273.112C141.358 277.259 141.696 281.955 143.551 286.248C145.406 290.54 148.64 294.109 152.596 296.231C156.553 298.353 160.938 298.869 164.861 297.675C168.785 296.481 171.954 293.666 173.727 289.801C175.5 285.935 175.744 281.308 174.41 276.857L158.562 280.406L172.473 272.375Z" fill="#3E3232"/>
<path d="M205.598 272.375C203.255 268.316 199.658 265.184 195.535 263.613C191.413 262.041 187.073 262.148 183.396 263.912C179.719 265.676 176.979 268.965 175.731 273.112C174.483 277.259 174.821 281.955 176.676 286.248C178.531 290.54 181.765 294.109 185.721 296.231C189.678 298.353 194.063 298.869 197.986 297.675C201.91 296.481 205.079 293.666 206.852 289.801C208.625 285.935 208.869 281.308 207.535 276.857L191.687 280.406L205.598 272.375Z" fill="#3E3232"/>
<path d="M238.723 272.375C236.38 268.316 232.783 265.184 228.66 263.613C224.538 262.041 220.198 262.148 216.521 263.912C212.844 265.676 210.104 268.965 208.856 273.112C207.608 277.259 207.946 281.955 209.801 286.248C211.656 290.54 214.89 294.109 218.846 296.231C222.803 298.353 227.188 298.869 231.111 297.675C235.035 296.481 238.204 293.666 239.977 289.801C241.75 285.935 241.994 281.308 240.66 276.857L224.812 280.406L238.723 272.375Z" fill="#3E3232"/>
<path d="M271.848 272.375C269.505 268.316 265.908 265.184 261.785 263.613C257.663 262.041 253.323 262.148 249.646 263.912C245.969 265.676 243.229 268.965 241.981 273.112C240.733 277.259 241.071 281.955 242.926 286.248C244.781 290.54 248.015 294.109 251.971 296.231C255.928 298.353 260.313 298.869 264.236 297.675C268.16 296.481 271.329 293.666 273.102 289.801C274.875 285.935 275.119 281.308 273.785 276.857L257.937 280.406L271.848 272.375Z" fill="#3E3232"/>
<path d="M39.9731 324.491C42.3163 320.433 43.2303 315.751 42.5298 311.396C41.8294 307.04 39.5669 303.335 36.2007 301.033C32.8346 298.73 28.6165 298.001 24.4011 298.995C20.1856 299.988 16.288 302.628 13.4979 306.381C10.7078 310.134 9.2339 314.718 9.37472 319.206C9.51553 323.694 11.2606 327.749 14.2563 330.55C17.252 333.35 21.2745 334.688 25.5086 334.29C29.7427 333.893 33.872 331.791 37.0598 328.41L26.0625 316.46L39.9731 324.491Z" fill="#3E3232"/>
<path d="M73.0981 324.491C75.4413 320.433 76.3553 315.751 75.6548 311.396C74.9544 307.04 72.6919 303.335 69.3257 301.033C65.9596 298.73 61.7415 298.001 57.5261 298.995C53.3106 299.988 49.413 302.628 46.6229 306.381C43.8328 310.134 42.3589 314.718 42.4997 319.206C42.6405 323.694 44.3856 327.749 47.3813 330.55C50.377 333.35 54.3995 334.688 58.6336 334.29C62.8677 333.893 66.997 331.791 70.1848 328.41L59.1875 316.46L73.0981 324.491Z" fill="#3E3232"/>
<path d="M106.223 324.491C108.566 320.433 109.48 315.751 108.78 311.396C108.079 307.04 105.817 303.335 102.451 301.033C99.0846 298.73 94.8665 298.001 90.6511 298.995C86.4356 299.988 82.538 302.628 79.7479 306.381C76.9578 310.134 75.4839 314.718 75.6247 319.206C75.7655 323.694 77.5106 327.749 80.5063 330.55C83.502 333.35 87.5245 334.688 91.7586 334.29C95.9927 333.893 100.122 331.791 103.31 328.41L92.3125 316.46L106.223 324.491Z" fill="#3E3232"/>
<path d="M139.348 324.491C141.691 320.433 142.605 315.751 141.905 311.396C141.204 307.04 138.942 303.335 135.576 301.033C132.21 298.73 127.992 298.001 123.776 298.995C119.561 299.988 115.663 302.628 112.873 306.381C110.083 310.134 108.609 314.718 108.75 319.206C108.891 323.694 110.636 327.749 113.631 330.55C116.627 333.35 120.649 334.688 124.884 334.29C129.118 333.893 133.247 331.791 136.435 328.41L125.438 316.46L139.348 324.491Z" fill="#3E3232"/>
<path d="M172.473 324.491C174.816 320.433 175.73 315.751 175.03 311.396C174.329 307.04 172.067 303.335 168.701 301.033C165.335 298.73 161.117 298.001 156.901 298.995C152.686 299.988 148.788 302.628 145.998 306.381C143.208 310.134 141.734 314.718 141.875 319.206C142.016 323.694 143.761 327.749 146.756 330.55C149.752 333.35 153.774 334.688 158.009 334.29C162.243 333.893 166.372 331.791 169.56 328.41L158.563 316.46L172.473 324.491Z" fill="#3E3232"/>
<path d="M205.598 324.491C207.941 320.433 208.855 315.751 208.155 311.396C207.454 307.04 205.192 303.335 201.826 301.033C198.46 298.73 194.242 298.001 190.026 298.995C185.811 299.988 181.913 302.628 179.123 306.381C176.333 310.134 174.859 314.718 175 319.206C175.141 323.694 176.886 327.749 179.881 330.55C182.877 333.35 186.899 334.688 191.134 334.29C195.368 333.893 199.497 331.791 202.685 328.41L191.688 316.46L205.598 324.491Z" fill="#3E3232"/>
<path d="M238.723 324.491C241.066 320.433 241.98 315.751 241.28 311.396C240.579 307.04 238.317 303.335 234.951 301.033C231.585 298.73 227.367 298.001 223.151 298.995C218.936 299.988 215.038 302.628 212.248 306.381C209.458 310.134 207.984 314.718 208.125 319.206C208.266 323.694 210.011 327.749 213.006 330.55C216.002 333.35 220.024 334.688 224.259 334.29C228.493 333.893 232.622 331.791 235.81 328.41L224.813 316.46L238.723 324.491Z" fill="#3E3232"/>
<path d="M271.848 324.491C274.191 320.433 275.105 315.751 274.405 311.396C273.704 307.04 271.442 303.335 268.076 301.033C264.71 298.73 260.492 298.001 256.276 298.995C252.061 299.988 248.163 302.628 245.373 306.381C242.583 310.134 241.109 314.718 241.25 319.206C241.391 323.694 243.136 327.749 246.131 330.55C249.127 333.35 253.149 334.688 257.384 334.29C261.618 333.893 265.747 331.791 268.935 328.41L257.938 316.46L271.848 324.491Z" fill="#3E3232"/>
<path d="M39.973 344.483C37.6298 340.425 34.0326 337.292 29.9101 335.721C25.7876 334.15 21.4482 334.257 17.771 336.021C14.0938 337.785 11.3538 341.073 10.106 345.22C8.85828 349.368 9.19616 354.063 11.0512 358.356C12.9062 362.649 16.1397 366.217 20.0965 368.339C24.0533 370.461 28.4376 370.977 32.3611 369.784C36.2846 368.59 39.4539 365.775 41.2269 361.909C42.9999 358.044 43.2441 353.417 41.9099 348.965L26.0625 352.514L39.973 344.483Z" fill="#3E3232"/>
<path d="M73.098 344.483C70.7548 340.425 67.1576 337.292 63.0351 335.721C58.9126 334.15 54.5732 334.257 50.896 336.021C47.2188 337.785 44.4788 341.073 43.231 345.22C41.9833 349.368 42.3212 354.063 44.1762 358.356C46.0312 362.649 49.2647 366.217 53.2215 368.339C57.1783 370.461 61.5626 370.977 65.4861 369.784C69.4096 368.59 72.5789 365.775 74.3519 361.909C76.1249 358.044 76.3691 353.417 75.0349 348.965L59.1875 352.514L73.098 344.483Z" fill="#3E3232"/>
<path d="M106.223 344.483C103.88 340.425 100.283 337.292 96.1601 335.721C92.0376 334.15 87.6982 334.257 84.021 336.021C80.3438 337.785 77.6038 341.073 76.356 345.22C75.1083 349.368 75.4462 354.063 77.3012 358.356C79.1562 362.649 82.3897 366.217 86.3465 368.339C90.3033 370.461 94.6876 370.977 98.6111 369.784C102.535 368.59 105.704 365.775 107.477 361.909C109.25 358.044 109.494 353.417 108.16 348.965L92.3125 352.514L106.223 344.483Z" fill="#3E3232"/>
<path d="M139.348 344.483C137.005 340.425 133.408 337.292 129.285 335.721C125.163 334.15 120.823 334.257 117.146 336.021C113.469 337.785 110.729 341.073 109.481 345.22C108.233 349.368 108.571 354.063 110.426 358.356C112.281 362.649 115.515 366.217 119.471 368.339C123.428 370.461 127.813 370.977 131.736 369.784C135.66 368.59 138.829 365.775 140.602 361.909C142.375 358.044 142.619 353.417 141.285 348.965L125.437 352.514L139.348 344.483Z" fill="#3E3232"/>
<path d="M172.473 344.483C170.13 340.425 166.533 337.292 162.41 335.721C158.288 334.15 153.948 334.257 150.271 336.021C146.594 337.785 143.854 341.073 142.606 345.22C141.358 349.368 141.696 354.063 143.551 358.356C145.406 362.649 148.64 366.217 152.596 368.339C156.553 370.461 160.938 370.977 164.861 369.784C168.785 368.59 171.954 365.775 173.727 361.909C175.5 358.044 175.744 353.417 174.41 348.965L158.562 352.514L172.473 344.483Z" fill="#3E3232"/>
<path d="M205.598 344.483C203.255 340.425 199.658 337.292 195.535 335.721C191.413 334.15 187.073 334.257 183.396 336.021C179.719 337.785 176.979 341.073 175.731 345.22C174.483 349.368 174.821 354.063 176.676 358.356C178.531 362.649 181.765 366.217 185.721 368.339C189.678 370.461 194.063 370.977 197.986 369.784C201.91 368.59 205.079 365.775 206.852 361.909C208.625 358.044 208.869 353.417 207.535 348.965L191.687 352.514L205.598 344.483Z" fill="#3E3232"/>
<path d="M238.723 344.483C236.38 340.425 232.783 337.292 228.66 335.721C224.538 334.15 220.198 334.257 216.521 336.021C212.844 337.785 210.104 341.073 208.856 345.22C207.608 349.368 207.946 354.063 209.801 358.356C211.656 362.649 214.89 366.217 218.846 368.339C222.803 370.461 227.188 370.977 231.111 369.784C235.035 368.59 238.204 365.775 239.977 361.909C241.75 358.044 241.994 353.417 240.66 348.965L224.812 352.514L238.723 344.483Z" fill="#3E3232"/>
<path d="M271.848 344.483C269.505 340.425 265.908 337.292 261.785 335.721C257.663 334.15 253.323 334.257 249.646 336.021C245.969 337.785 243.229 341.073 241.981 345.22C240.733 349.368 241.071 354.063 242.926 358.356C244.781 362.649 248.015 366.217 251.971 368.339C255.928 370.461 260.313 370.977 264.236 369.784C268.16 368.59 271.329 365.775 273.102 361.909C274.875 358.044 275.119 353.417 273.785 348.965L257.937 352.514L271.848 344.483Z" fill="#3E3232"/>
<path d="M39.9731 396.6C42.3163 392.541 43.2303 387.86 42.5298 383.504C41.8294 379.148 39.5669 375.444 36.2007 373.141C32.8346 370.838 28.6165 370.11 24.4011 371.103C20.1856 372.096 16.288 374.736 13.4979 378.489C10.7078 382.242 9.2339 386.827 9.37472 391.314C9.51553 395.802 11.2606 399.857 14.2563 402.658C17.252 405.459 21.2745 406.796 25.5086 406.399C29.7427 406.002 33.872 403.899 37.0598 400.518L26.0625 388.569L39.9731 396.6Z" fill="#3E3232"/>
<path d="M73.0981 396.6C75.4413 392.541 76.3553 387.86 75.6548 383.504C74.9544 379.148 72.6919 375.444 69.3257 373.141C65.9596 370.838 61.7415 370.11 57.5261 371.103C53.3106 372.096 49.413 374.736 46.6229 378.489C43.8328 382.242 42.3589 386.827 42.4997 391.314C42.6405 395.802 44.3856 399.857 47.3813 402.658C50.377 405.459 54.3995 406.796 58.6336 406.399C62.8677 406.002 66.997 403.899 70.1848 400.518L59.1875 388.569L73.0981 396.6Z" fill="#3E3232"/>
<path d="M106.223 396.6C108.566 392.541 109.48 387.86 108.78 383.504C108.079 379.148 105.817 375.444 102.451 373.141C99.0846 370.838 94.8665 370.11 90.6511 371.103C86.4356 372.096 82.538 374.736 79.7479 378.489C76.9578 382.242 75.4839 386.827 75.6247 391.314C75.7655 395.802 77.5106 399.857 80.5063 402.658C83.502 405.459 87.5245 406.796 91.7586 406.399C95.9927 406.002 100.122 403.899 103.31 400.518L92.3125 388.569L106.223 396.6Z" fill="#3E3232"/>
<path d="M139.348 396.6C141.691 392.541 142.605 387.86 141.905 383.504C141.204 379.148 138.942 375.444 135.576 373.141C132.21 370.838 127.992 370.11 123.776 371.103C119.561 372.096 115.663 374.736 112.873 378.489C110.083 382.242 108.609 386.827 108.75 391.314C108.891 395.802 110.636 399.857 113.631 402.658C116.627 405.459 120.649 406.796 124.884 406.399C129.118 406.002 133.247 403.899 136.435 400.518L125.438 388.569L139.348 396.6Z" fill="#3E3232"/>
<path d="M172.473 396.6C174.816 392.541 175.73 387.86 175.03 383.504C174.329 379.148 172.067 375.444 168.701 373.141C165.335 370.838 161.117 370.11 156.901 371.103C152.686 372.096 148.788 374.736 145.998 378.489C143.208 382.242 141.734 386.827 141.875 391.314C142.016 395.802 143.761 399.857 146.756 402.658C149.752 405.459 153.774 406.796 158.009 406.399C162.243 406.002 166.372 403.899 169.56 400.518L158.563 388.569L172.473 396.6Z" fill="#3E3232"/>
<path d="M205.598 396.6C207.941 392.541 208.855 387.86 208.155 383.504C207.454 379.148 205.192 375.444 201.826 373.141C198.46 370.838 194.242 370.11 190.026 371.103C185.811 372.096 181.913 374.736 179.123 378.489C176.333 382.242 174.859 386.827 175 391.314C175.141 395.802 176.886 399.857 179.881 402.658C182.877 405.459 186.899 406.796 191.134 406.399C195.368 406.002 199.497 403.899 202.685 400.518L191.688 388.569L205.598 396.6Z" fill="#3E3232"/>
<path d="M238.723 396.6C241.066 392.541 241.98 387.86 241.28 383.504C240.579 379.148 238.317 375.444 234.951 373.141C231.585 370.838 227.367 370.11 223.151 371.103C218.936 372.096 215.038 374.736 212.248 378.489C209.458 382.242 207.984 386.827 208.125 391.314C208.266 395.802 210.011 399.857 213.006 402.658C216.002 405.459 220.024 406.796 224.259 406.399C228.493 406.002 232.622 403.899 235.81 400.518L224.813 388.569L238.723 396.6Z" fill="#3E3232"/>
<path d="M271.848 396.6C274.191 392.541 275.105 387.86 274.405 383.504C273.704 379.148 271.442 375.444 268.076 373.141C264.71 370.838 260.492 370.11 256.276 371.103C252.061 372.096 248.163 374.736 245.373 378.489C242.583 382.242 241.109 386.827 241.25 391.314C241.391 395.802 243.136 399.857 246.131 402.658C249.127 405.459 253.149 406.796 257.384 406.399C261.618 406.002 265.747 403.899 268.935 400.518L257.938 388.569L271.848 396.6Z" fill="#3E3232"/>
<path d="M39.973 416.592C37.6298 412.533 34.0326 409.401 29.9101 407.829C25.7876 406.258 21.4482 406.365 17.771 408.129C14.0938 409.893 11.3538 413.182 10.106 417.329C8.85828 421.476 9.19616 426.172 11.0512 430.464C12.9062 434.757 16.1397 438.326 20.0965 440.448C24.0533 442.57 28.4376 443.086 32.3611 441.892C36.2846 440.698 39.4539 437.883 41.2269 434.018C42.9999 430.152 43.2441 425.525 41.9099 421.074L26.0625 424.623L39.973 416.592Z" fill="#3E3232"/>
<path d="M73.098 416.592C70.7548 412.533 67.1576 409.401 63.0351 407.829C58.9126 406.258 54.5732 406.365 50.896 408.129C47.2188 409.893 44.4788 413.182 43.231 417.329C41.9833 421.476 42.3212 426.172 44.1762 430.464C46.0312 434.757 49.2647 438.326 53.2215 440.448C57.1783 442.57 61.5626 443.086 65.4861 441.892C69.4096 440.698 72.5789 437.883 74.3519 434.018C76.1249 430.152 76.3691 425.525 75.0349 421.074L59.1875 424.623L73.098 416.592Z" fill="#3E3232"/>
<path d="M106.223 416.592C103.88 412.533 100.283 409.401 96.1601 407.829C92.0376 406.258 87.6982 406.365 84.021 408.129C80.3438 409.893 77.6038 413.182 76.356 417.329C75.1083 421.476 75.4462 426.172 77.3012 430.464C79.1562 434.757 82.3897 438.326 86.3465 440.448C90.3033 442.57 94.6876 443.086 98.6111 441.892C102.535 440.698 105.704 437.883 107.477 434.018C109.25 430.152 109.494 425.525 108.16 421.074L92.3125 424.623L106.223 416.592Z" fill="#3E3232"/>
<path d="M139.348 416.592C137.005 412.533 133.408 409.401 129.285 407.829C125.163 406.258 120.823 406.365 117.146 408.129C113.469 409.893 110.729 413.182 109.481 417.329C108.233 421.476 108.571 426.172 110.426 430.464C112.281 434.757 115.515 438.326 119.471 440.448C123.428 442.57 127.813 443.086 131.736 441.892C135.66 440.698 138.829 437.883 140.602 434.018C142.375 430.152 142.619 425.525 141.285 421.074L125.437 424.623L139.348 416.592Z" fill="#3E3232"/>
<path d="M172.473 416.592C170.13 412.533 166.533 409.401 162.41 407.829C158.288 406.258 153.948 406.365 150.271 408.129C146.594 409.893 143.854 413.182 142.606 417.329C141.358 421.476 141.696 426.172 143.551 430.464C145.406 434.757 148.64 438.326 152.596 440.448C156.553 442.57 160.938 443.086 164.861 441.892C168.785 440.698 171.954 437.883 173.727 434.018C175.5 430.152 175.744 425.525 174.41 421.074L158.562 424.623L172.473 416.592Z" fill="#3E3232"/>
<path d="M205.598 416.592C203.255 412.533 199.658 409.401 195.535 407.829C191.413 406.258 187.073 406.365 183.396 408.129C179.719 409.893 176.979 413.182 175.731 417.329C174.483 421.476 174.821 426.172 176.676 430.464C178.531 434.757 181.765 438.326 185.721 440.448C189.678 442.57 194.063 443.086 197.986 441.892C201.91 440.698 205.079 437.883 206.852 434.018C208.625 430.152 208.869 425.525 207.535 421.074L191.687 424.623L205.598 416.592Z" fill="#3E3232"/>
<path d="M238.723 416.592C236.38 412.533 232.783 409.401 228.66 407.829C224.538 406.258 220.198 406.365 216.521 408.129C212.844 409.893 210.104 413.182 208.856 417.329C207.608 421.476 207.946 426.172 209.801 430.464C211.656 434.757 214.89 438.326 218.846 440.448C222.803 442.57 227.188 443.086 231.111 441.892C235.035 440.698 238.204 437.883 239.977 434.018C241.75 430.152 241.994 425.525 240.66 421.074L224.812 424.623L238.723 416.592Z" fill="#3E3232"/>
<path d="M271.848 416.592C269.505 412.533 265.908 409.401 261.785 407.829C257.663 406.258 253.323 406.365 249.646 408.129C245.969 409.893 243.229 413.182 241.981 417.329C240.733 421.476 241.071 426.172 242.926 430.464C244.781 434.757 248.015 438.326 251.971 440.448C255.928 442.57 260.313 443.086 264.236 441.892C268.16 440.698 271.329 437.883 273.102 434.018C274.875 430.152 275.119 425.525 273.785 421.074L257.937 424.623L271.848 416.592Z" fill="#3E3232"/>
<path d="M39.9731 468.708C42.3163 464.65 43.2303 459.968 42.5298 455.612C41.8294 451.257 39.5669 447.552 36.2007 445.25C32.8346 442.947 28.6165 442.218 24.4011 443.211C20.1856 444.204 16.288 446.845 13.4979 450.598C10.7078 454.35 9.2339 458.935 9.37472 463.423C9.51553 467.91 11.2606 471.965 14.2563 474.766C17.252 477.567 21.2745 478.904 25.5086 478.507C29.7427 478.11 33.872 476.008 37.0598 472.627L26.0625 460.677L39.9731 468.708Z" fill="#3E3232"/>
<path d="M73.0981 468.708C75.4413 464.65 76.3553 459.968 75.6548 455.612C74.9544 451.257 72.6919 447.552 69.3257 445.25C65.9596 442.947 61.7415 442.218 57.5261 443.211C53.3106 444.204 49.413 446.845 46.6229 450.598C43.8328 454.35 42.3589 458.935 42.4997 463.423C42.6405 467.91 44.3856 471.965 47.3813 474.766C50.377 477.567 54.3995 478.904 58.6336 478.507C62.8677 478.11 66.997 476.008 70.1848 472.627L59.1875 460.677L73.0981 468.708Z" fill="#3E3232"/>
<path d="M106.223 468.708C108.566 464.65 109.48 459.968 108.78 455.612C108.079 451.257 105.817 447.552 102.451 445.25C99.0846 442.947 94.8665 442.218 90.6511 443.211C86.4356 444.204 82.538 446.845 79.7479 450.598C76.9578 454.35 75.4839 458.935 75.6247 463.423C75.7655 467.91 77.5106 471.965 80.5063 474.766C83.502 477.567 87.5245 478.904 91.7586 478.507C95.9927 478.11 100.122 476.008 103.31 472.627L92.3125 460.677L106.223 468.708Z" fill="#3E3232"/>
<path d="M139.348 468.708C141.691 464.65 142.605 459.968 141.905 455.612C141.204 451.257 138.942 447.552 135.576 445.25C132.21 442.947 127.992 442.218 123.776 443.211C119.561 444.204 115.663 446.845 112.873 450.598C110.083 454.35 108.609 458.935 108.75 463.423C108.891 467.91 110.636 471.965 113.631 474.766C116.627 477.567 120.649 478.904 124.884 478.507C129.118 478.11 133.247 476.008 136.435 472.627L125.438 460.677L139.348 468.708Z" fill="#3E3232"/>
<path d="M172.473 468.708C174.816 464.65 175.73 459.968 175.03 455.612C174.329 451.257 172.067 447.552 168.701 445.25C165.335 442.947 161.117 442.218 156.901 443.211C152.686 444.204 148.788 446.845 145.998 450.598C143.208 454.35 141.734 458.935 141.875 463.423C142.016 467.91 143.761 471.965 146.756 474.766C149.752 477.567 153.774 478.904 158.009 478.507C162.243 478.11 166.372 476.008 169.56 472.627L158.563 460.677L172.473 468.708Z" fill="#3E3232"/>
<path d="M205.598 468.708C207.941 464.65 208.855 459.968 208.155 455.612C207.454 451.257 205.192 447.552 201.826 445.25C198.46 442.947 194.242 442.218 190.026 443.211C185.811 444.204 181.913 446.845 179.123 450.598C176.333 454.35 174.859 458.935 175 463.423C175.141 467.91 176.886 471.965 179.881 474.766C182.877 477.567 186.899 478.904 191.134 478.507C195.368 478.11 199.497 476.008 202.685 472.627L191.688 460.677L205.598 468.708Z" fill="#3E3232"/>
<path d="M238.723 468.708C241.066 464.65 241.98 459.968 241.28 455.612C240.579 451.257 238.317 447.552 234.951 445.25C231.585 442.947 227.367 442.218 223.151 443.211C218.936 444.204 215.038 446.845 212.248 450.598C209.458 454.35 207.984 458.935 208.125 463.423C208.266 467.91 210.011 471.965 213.006 474.766C216.002 477.567 220.024 478.904 224.259 478.507C228.493 478.11 232.622 476.008 235.81 472.627L224.813 460.677L238.723 468.708Z" fill="#3E3232"/>
<path d="M271.848 468.708C274.191 464.65 275.105 459.968 274.405 455.612C273.704 451.257 271.442 447.552 268.076 445.25C264.71 442.947 260.492 442.218 256.276 443.211C252.061 444.204 248.163 446.845 245.373 450.598C242.583 454.35 241.109 458.935 241.25 463.423C241.391 467.91 243.136 471.965 246.131 474.766C249.127 477.567 253.149 478.904 257.384 478.507C261.618 478.11 265.747 476.008 268.935 472.627L257.938 460.677L271.848 468.708Z" fill="#3E3232"/>
</g>
<defs>
<linearGradient id="paint0_linear_856_8626" x1="140.5" y1="0" x2="140.5" y2="444" gradientUnits="userSpaceOnUse">
<stop offset="0.0472435" stop-color="#6C5542"/>
<stop offset="0.8" stop-color="#4A3933"/>
<stop offset="1" stop-color="#3E3232"/>
</linearGradient>
<clipPath id="clip0_856_8626">
<rect width="264" height="437" fill="white" transform="translate(10 4)"/>
</clipPath>
</defs>
</svg>
